<svg class="sprite" xmlns="http://www.w3.org/2000/svg" xmlns:xlink="http://www.w3.org/1999/xlink"><symbol viewBox="0 0 48 48" id="close" xmlns="http://www.w3.org/2000/svg"><path d="M41 10.188 37.812 7 24 20.813 10.187 7 7 10.188 20.813 24 7 37.813 10.188 41 24 27.187 37.813 41 41 37.812 27.187 24 41 10.187Z"/></symbol><symbol viewBox="0 0 24 27" id="next" xmlns="http://www.w3.org/2000/svg"><path fill-rule="evenodd" clip-rule="evenodd" d="M24 13.5 0 0v27l24-13.5Z"/></symbol><symbol viewBox="0 0 24 27" id="prev" xmlns="http://www.w3.org/2000/svg"><path fill-rule="evenodd" clip-rule="evenodd" d="M0 13.5 24 27V0L0 13.5Z"/></symbol><symbol viewBox="0 0 48 48" id="tgm" xmlns="http://www.w3.org/2000/svg"><path fill-rule="evenodd" clip-rule="evenodd" d="M35.11 16.31c-.36 3.79-1.92 13-2.72 17.24-.34 1.8-1 2.4-1.64 2.46-1.39.12-2.45-.92-3.79-1.8-2.12-1.38-3.3-2.24-5.36-3.6-2.38-1.55-.84-2.41.52-3.81.36-.36 6.5-6 6.62-6.46a.48.48 0 0 0-.12-.42.55.55 0 0 0-.5 0c-.22 0-3.58 2.28-10.12 6.7a4.46 4.46 0 0 1-2.59 1 17.316 17.316 0 0 1-3.74-.88c-1.5-.48-2.7-.74-2.6-1.58.06-.44.66-.88 1.78-1.34 7-3 11.65-5.06 14-6 6.65-2.78 8.05-3.26 9-3.28a1.61 1.61 0 0 1 .94.28c.19.172.31.406.34.66.027.276.02.555-.02.83Z"/></symbol><symbol viewBox="0 0 48 48" id="vkt" xmlns="http://www.w3.org/2000/svg"><path d="M25.44 34C14.5 34 8.26 26.48 8 14h5.48c.18 9.16 4.22 13 7.42 13.84V14h5.16v7.9c3.16-.34 6.48-3.9 7.6-7.9h5.16a15.239 15.239 0 0 1-7 10A15.79 15.79 0 0 1 40 34h-5.66a9.87 9.87 0 0 0-8.28-7.14V34h-.62Z"/></symbol></svg>