<svg xmlns="http://www.w3.org/2000/svg" xmlns:xlink="http://www.w3.org/1999/xlink" viewBox="0 0 280.02 253.95"><defs><style>.cls-1{fill:#f8af1b;}.cls-2{fill:#ffa8b8;}.cls-3{fill:#0e396c;}.cls-4{fill:#231f20;}.cls-5{fill:#ff579c;}.cls-6{fill:#f70000;}.cls-7{clip-path:url(#clip-path);}.cls-8{fill:#008926;}.cls-9{fill:#888;}.cls-10{clip-path:url(#clip-path-2);}</style><clipPath id="clip-path" transform="translate(10.62 7.31)"><path class="cls-1" d="M4.14,29.66S-3.55,48,2,56.6,24.45,79.45,37,72.44,65,38.17,53.36,28.66,18.11,7.83,4.14,29.66Z"/></clipPath><clipPath id="clip-path-2" transform="translate(10.62 7.31)"><path class="cls-2" d="M227.29,47.24a84.44,84.44,0,0,1,8.25-26.84c7-13.67,23.4-20.4,23.4-20.4l7.9,4s-1.32,17.41-13.25,31.05-19.68,16.27-19.68,16.27Z"/></clipPath></defs><g id="Слой_2" data-name="Слой 2"><g id="лого"><polygon class="cls-3" points="161.77 193.83 158.63 196.83 176.85 217.15 181.33 216.35 173.88 202.08 161.77 193.83"/><path class="cls-4" d="M161.84,183.54l-19-8.43-23.95,2.75-18.3,24.61,1.89,24,17.67,17.66,24.61,2.53L170.67,234l3.79-26.5Zm1.26,48.59-18.93,5.68-20-1.9-13-17.66.42-17.46,13.89-17,22.29.63,10.1,7.15,8.62,22.72Z" transform="translate(10.62 7.31)"/><path class="cls-3" d="M125.42,132.25c-11.06.87-17.65,9.6-14,14.24s31.31,4.31,31.31,4.31Z" transform="translate(10.62 7.31)"/><polygon class="cls-5" points="162.93 134.21 131.24 137.01 123.51 102.75 54.9 89.7 55.69 78.23 121.98 88.22 152.55 89.34 215.86 79.27 220.82 91.53 157.69 103.01 162.93 134.21"/><polygon class="cls-3" points="136.85 138.41 144.64 219.16 150.71 217.99 144.98 140.38 136.85 138.41"/><path class="cls-2" d="M137.74,61c-4-2.66-9.29-4.2-13.43-.22S117.22,74,119.82,78.47s6.81,8.51,12.87,6.75,9.54-11,9.15-14.37S140.53,62.83,137.74,61Z" transform="translate(10.62 7.31)"/><polygon class="cls-1" points="131.24 137.01 162.84 134.25 200.21 154.79 200.99 175.53 177.12 200.31 170.27 189.81 186.51 166.53 161.47 148.53 155.21 145.79 172.18 170.94 153.67 225.07 139.93 221.42 152.55 174.31 131.24 137.01"/><polygon class="cls-3" points="139.65 220.93 137.97 224.93 162.79 236.28 166.57 233.76 154.04 223.65 139.65 220.93"/><polygon class="cls-2" points="55.69 78.23 49.16 68.9 46.42 70.27 49.36 77.51 35.08 75.75 32.34 79.86 35.27 89.44 54.9 89.7 55.69 78.23"/><polygon class="cls-2" points="215.86 79.27 221.47 69.49 223.82 69.88 223.16 78.23 237.48 70.86 242.73 82.4 239.04 84.94 220.82 91.53 215.86 79.27"/><path class="cls-6" d="M132.32,60.81s-1.93-7.57-4.34-7.57-6.74.52-6.74.52,1.69-8.09-2.89-8.09-11.79.52-11.79.52,4.09-2.35-1.45-5.75-12.52-2.61-12.52-2.61L86.81,44.1s11.08,9.14,13.73,7.57l2.64-1.56s2.41,7.57,4.1,7.31a33.14,33.14,0,0,1,4.09-.26s1.2,9.92,4.09,11.23,8.67.78,8.67.78Z" transform="translate(10.62 7.31)"/><path class="cls-6" d="M137.54,70.39s5.24,3.32,6.66,1.37a23.6,23.6,0,0,0,2.51-5.82s5.55,6.13,8.24,2.43,6.52-9.85,6.52-9.85-.51,4.7,5.5,2.22,9.48-8.59,9.48-8.59l-1.66-8.36s-13.91,3.58-14.2,6.64l-.3,3.06s-7.54-2.51-8.32-1a33.37,33.37,0,0,1-2.2,3.46s-8.73-4.87-11.48-3.3a113.34,113.34,0,0,1-10.53,4.43Z" transform="translate(10.62 7.31)"/><path class="cls-1" d="M4.14,29.66S-3.55,48,2,56.6,24.45,79.45,37,72.44,65,38.17,53.36,28.66,18.11,7.83,4.14,29.66Z" transform="translate(10.62 7.31)"/><g class="cls-7"><path class="cls-8" d="M-10.62,44.77s16.14,5.74,31.55.46S53.86,15.91,53.86,15.91l11,9.21S41.87,48,34.39,52.7-10.48,63-10.48,63Z" transform="translate(10.62 7.31)"/><path class="cls-8" d="M6.31,70.89s12.94-1.31,23.2-5.09S60.67,43.42,60.67,43.42L58.3,57.69,36.82,77.29,11.05,82.23Z" transform="translate(10.62 7.31)"/><path class="cls-8" d="M-7.93,36.86s14,2.61,25.35-2.13S43.9,13.1,43.9,13.1L35.23,7.19,7,18.68Z" transform="translate(10.62 7.31)"/></g><polygon class="cls-9" points="238.43 53.54 238.29 53.78 220.42 84.59 217.23 85.01 215.86 88.36 222.78 93.36 224.76 89.92 224.17 86.79 245.25 57.83 238.43 53.54"/><path class="cls-2" d="M227.29,47.24a84.44,84.44,0,0,1,8.25-26.84c7-13.67,23.4-20.4,23.4-20.4l7.9,4s-1.32,17.41-13.25,31.05-19.68,16.27-19.68,16.27Z" transform="translate(10.62 7.31)"/><g class="cls-10"><polygon class="cls-6" points="274.87 6.29 252.96 29.73 235.99 60.6 234.09 56.03 248 12.39 272.77 0 280.02 4.57 274.49 44.59 246.09 64.03 240.19 61.94 257.53 39.26 270.3 23.82 275.82 5.34 274.87 6.29"/></g></g></g></svg>