<svg width="435" height="385" viewBox="0 0 435 385" fill="none" xmlns="http://www.w3.org/2000/svg">
<path d="M263.962 169.532L274.795 213.402L325.497 276.998L333.439 311.235L321.827 354.043L301.671 359.2L242.426 247.037L217.38 358.929L192.344 361.383L181.961 288.003L199.055 238.476L204.407 171.825L121.796 197.971L114.614 180.537L212.499 136.357L247.308 133.303L342.592 204.84L326.798 220.802L263.962 169.532Z" fill="black"/>
<path d="M213.039 136.217C218.04 142.735 233.174 150.756 242.306 133.773C251.439 116.79 244.507 101.229 236.725 99.0861C228.943 96.9432 220.371 98.7657 217.72 103.312C215.069 107.858 203.547 123.73 213.039 136.217Z" fill="#FFA8B8"/>
<path d="M121.116 178.785L106.302 167.629L99.9804 170.423L110.073 179.576L90.738 181.338L93.0986 203.658L122.186 197.901L121.116 178.785Z" fill="#FFA8B8"/>
<path d="M341.242 205.941L359.576 206.182L360.957 210.678L350.364 211.279L366.548 222.965L359.586 232.588L353.094 238.235L326.448 220.531L341.242 205.941Z" fill="#FFA8B8"/>
<path d="M247.048 107.938L247.408 108.138L255.2 112.624V116.9L208.568 110.581L207.758 105.124L216.92 103.492L232.594 72.5097C232.594 72.5097 236.875 69.5056 239.926 69.6558C242.977 69.806 247.258 75.1633 247.258 77.4064" fill="#231F20"/>
<path d="M217.38 358.469L215.04 367.902L156.095 371.567C156.095 371.567 151.203 366.68 153.094 365.759C154.984 364.837 169.888 361.753 169.888 361.753L193.654 358.469H217.38Z" fill="black"/>
<path d="M317.346 351.089L338.071 364.848C338.071 364.848 345.073 370.045 344.482 371.857C343.892 373.67 337.481 374 337.481 374L301.572 359.11L317.346 351.089Z" fill="black"/>
<path d="M375.86 141.174C381.072 155.353 367.158 163.044 359.416 164.205C351.674 165.367 337.191 161.742 334.32 150.507C331.449 139.271 336.51 130.399 342.552 127.275C348.593 124.151 367.078 117.251 375.86 141.174Z" stroke="#F8AF1B" stroke-width="9.21" stroke-miterlimit="10"/>
<path d="M122.256 91.366C122.256 91.366 107.112 98.6158 105.802 107.187C104.492 115.759 107.112 134.164 119.015 136.838C130.918 139.511 155.885 130.91 153.904 118.383C151.924 105.856 143.321 85.4379 122.256 91.366Z" fill="#FFA8B8"/>
<mask id="mask0_293_111" style="mask-type:luminance" maskUnits="userSpaceOnUse" x="105" y="90" width="50" height="48">
<path d="M122.256 91.366C122.256 91.366 107.112 98.6158 105.802 107.187C104.492 115.759 107.112 134.164 119.015 136.838C130.918 139.511 155.885 130.91 153.904 118.383C151.924 105.856 143.321 85.4379 122.256 91.366Z" fill="white"/>
</mask>
<g mask="url(#mask0_293_111)">
<path d="M104.472 92.5977C104.472 92.5977 111.423 105.295 124.107 110.622C136.79 115.949 161.336 110.622 161.336 110.622L163.066 122.638C163.066 122.638 135.76 124.181 128.398 122.949C121.036 121.717 94.389 104.213 94.389 104.213L104.472 92.5977Z" fill="#F70000"/>
<path d="M100.48 118.603C100.48 118.603 109.373 125.062 117.965 128.436C126.557 131.811 150.183 131.811 150.183 131.811L140.671 139.491L116.124 139.802L97.1196 128.436L100.48 118.603Z" fill="#F70000"/>
<path d="M110.603 89.1027C110.603 89.1027 118.015 98.6457 127.787 102.02C137.56 105.395 156.625 103.252 156.625 103.252L154.484 94.6503L130.238 86.0986L110.603 89.1027Z" fill="#F70000"/>
</g>
<path d="M180.341 13.4699C180.341 13.4699 156.785 25.6665 166.097 44.1616C175.41 62.6568 193.924 60.1834 201.626 55.9977C209.328 51.812 219.261 39.7356 216.24 29.742C213.219 19.7485 198.155 7.78219 180.341 13.4699Z" fill="#008926"/>
<path d="M171.318 36.6519C177.08 44.4024 187.323 46.9358 187.323 46.9358" stroke="white" stroke-width="3.87" stroke-linejoin="bevel"/>
<path d="M293.379 70.0169C304.702 79.64 321.236 77.7073 328.898 68.8653C336.56 60.0233 335.36 42.9201 325.588 36.8218C315.815 30.7235 303.222 26.4276 295.65 34.819C288.078 43.2104 284.827 62.747 293.379 70.0169Z" fill="#FF579C"/>
<mask id="mask1_293_111" style="mask-type:luminance" maskUnits="userSpaceOnUse" x="288" y="30" width="46" height="47">
<path d="M293.379 70.0169C304.702 79.64 321.236 77.7073 328.898 68.8653C336.56 60.0233 335.36 42.9201 325.588 36.8218C315.815 30.7235 303.222 26.4276 295.65 34.819C288.078 43.2104 284.827 62.747 293.379 70.0169Z" fill="white"/>
</mask>
<g mask="url(#mask1_293_111)">
<path d="M275.915 49.5485C275.915 49.5485 291.659 53.0433 305.723 44.5417C319.786 36.0402 321.176 23.5933 321.176 23.5933L329.469 28.9405C329.469 28.9405 324.887 42.3287 316.185 49.5986C295.32 67.0423 277.335 59.7124 277.335 59.7124L275.915 49.5485Z" fill="#5695A4"/>
<path d="M283.887 72.1796C283.887 72.1796 303.172 72.7203 315.645 62.1059C328.418 51.2311 335.07 34.8789 335.07 34.8789L337.471 39.8857C337.471 39.8857 336.47 53.0436 326.798 62.4464C317.125 71.8492 303.222 76.5556 298.741 78.4682C294.26 80.3808 283.887 72.1796 283.887 72.1796Z" fill="#5695A4"/>
</g>
<path d="M113.664 314.098C113.664 314.098 125.057 304.746 126.427 303.084C127.797 301.421 127.657 294.472 127.427 292.83C127.197 291.187 121.686 287.763 121.686 287.763L104.372 299.048L95.4893 287.152L93.1687 288.243L94.669 300.15L84.6665 295.764L81.6657 297.406L87.4272 311.405C84.9166 314.639 79.2251 326.425 79.2251 326.425L62.0008 346.933L59 369.374H94.529L97.2597 357.608L104.642 369.374C104.642 369.374 114.644 369.504 114.484 369.093C114.324 368.683 109.293 347.063 109.293 347.063L122.136 369.093L133.619 369.374L115.854 330.521L113.664 314.098Z" fill="black"/>
</svg>
