<svg xmlns="http://www.w3.org/2000/svg" xmlns:xlink="http://www.w3.org/1999/xlink" viewBox="0 0 434.55 384.48"><defs><style>.cls-1{fill:#5695a4;}.cls-2{fill:#fff;}.cls-3{fill:#0e396c;}.cls-4{fill:#a0dee8;}.cls-5{fill:#f8af1b;}.cls-6{clip-path:url(#clip-path);}.cls-7{fill:#bfbfbf;}.cls-8{fill:#008926;}.cls-9{clip-path:url(#clip-path-2);}</style><clipPath id="clip-path"><path class="cls-1" d="M273.34,254.76l-101.72-.93,3.73-22.4s14-12.13,46.66-11.2,53.19,14,53.19,14Z"/></clipPath><clipPath id="clip-path-2"><path class="cls-2" d="M352.33,383l-25.1,1.09,27.6-73.53s-14.37,2.5-26.23-1.87-21.23-21.23-21.23-21.23l-5.62-48.71,12.49-.62s3.74,27.47,5,32.47,7.5,18.73,14.36,23.1S354.83,295,354.83,295l-5.62-73.06,12.48-1.87,3.13,46.83,13.73-8.12,8.75-25,13.11,2.49-11.86,31.23-16.86,8.74-2.56,42.33s15-3,24.41-9.86,15.68-17.92,15.68-17.92l9.92-1.44.63,13.11s-28.73,23.73-31.85,25-26.23,10.62-26.23,10.62Z"/></clipPath></defs><g id="Слой_2" data-name="Слой 2"><g id="лого"><polygon class="cls-3" points="26.03 381.12 24.74 284.65 178.05 284.11 179.68 382.51 26.03 381.12"/><polygon class="cls-2" points="74.48 308.3 38.33 308.57 37.51 361.58 75.03 361.31 74.48 308.3"/><polygon class="cls-2" points="84.27 308.57 86.72 361.85 122.05 361.58 121.51 309.39 84.27 308.57"/><polygon class="cls-2" points="131.3 310.48 132.11 361.31 168.54 361.04 167.18 310.2 131.3 310.48"/><polygon class="cls-3" points="20.39 283.02 105.2 207.63 190.01 279.39 175.15 285.56 20.39 286.64 20.39 283.02"/><polygon class="cls-1" points="17.67 291.18 0 280.57 103.57 198.21 113.36 198.21 204.42 281.93 187.84 292.81 106.56 213.43 17.67 291.18"/><path class="cls-2" d="M90.16,257.1s-3.81-13.22-10.51-12.5,2.35,12,2.35,12-14.86-2.35-14.49,2.54,10,4.17,10,4.17-10.69,8-6.52,12.5S90.52,270,90.52,270Z"/><path class="cls-2" d="M113.17,252s10.88-9.42,15.77-6.89-6.7,11.6-6.7,11.6,10.51.73,12.32,3.81-11.42,4.71-11.42,4.71c10.72,1,14.41,9.89,8.52,12.14-3.6,1.38-18.67-8.15-18.67-8.15Z"/><polygon class="cls-1" points="9.24 279.21 12.37 381.29 28.3 381.19 26.37 275.68 9.24 279.21"/><polygon class="cls-1" points="176.42 278.13 179.68 382.51 194.91 382.24 192.73 280.3 176.42 278.13"/><polygon class="cls-4" points="43.04 315.28 42.5 330.14 70.77 329.23 68.96 315.64 43.04 315.28"/><polygon class="cls-4" points="43.77 337.02 43.58 355.33 52.1 356.05 52.83 336.66 43.77 337.02"/><path class="cls-4" d="M59.53,336.12s-1.09,20.11-.36,19.93,8.88-.36,8.88-.36v-20.3Z"/><polygon class="cls-4" points="91.43 314.73 91.61 328.33 116.98 328.51 116.25 315.28 91.43 314.73"/><polygon class="cls-4" points="91.43 335.94 91.61 355.15 100.49 354.42 100.13 335.76 91.43 335.94"/><polygon class="cls-4" points="107.01 335.39 107.56 354.24 116.62 354.24 115.53 335.21 107.01 335.39"/><polygon class="cls-4" points="135.37 315.37 136.46 328.96 162.56 329.23 163.37 315.91 135.37 315.37"/><polygon class="cls-4" points="137 335.21 137.28 355.87 148.69 355.6 147.06 334.94 137 335.21"/><polygon class="cls-4" points="152.77 334.94 153.59 354.24 161.47 354.24 160.38 333.58 152.77 334.94"/><path class="cls-5" d="M196.81,155.84l-8.4,76.08,73.73-2.35L264,154Zm51,55.58-43.24,1.35s0-34,11.51-39.43,26.75-4.59,31.42,4S247.83,211.42,247.83,211.42Z"/><polygon class="cls-5" points="156.37 381.06 182.5 247.92 262.14 249.16 248.45 382.31 156.37 381.06"/><path class="cls-1" d="M273.34,254.76l-101.72-.93,3.73-22.4s14-12.13,46.66-11.2,53.19,14,53.19,14Z"/><g class="cls-6"><path class="cls-7" d="M182.19,224.59,176,260.36s7.16,3.11,8.71-1.55,6.84-36.4,6.84-36.4l5.29-1.55.31,37.64,9.34-.94-.32-39.19,7.47-.31L213,259.12h5.6l3.11-42.31,8.4,1.56-.94,41.06,5.92-.31,3.11-41.69,11.19,2.49L245.65,265l7.47-.31,5-44.49,8.71,1.87-4.36,44.48,5.91-.62,5.29-51-92.39-.62Z"/></g><path class="cls-5" d="M156.37,381.06c1.23-1.76.58-27.57-.23-49.68-.62-17-1.32-31.82-1.32-31.82H331.2l-3.73,84.92Z"/><path class="cls-1" d="M152,297.07l-23.33,35.15s56,1.87,57.86-.93,26.13-20.84,26.13-20.84l22.4,22.39,67.19-2.48,28.93-30.8Z"/><path class="cls-2" d="M192.46,368s-3.74-36.09,16.8-36.71,14.31,37.33,14.31,37.33Z"/><path class="cls-1" d="M197.75,130.24l7.4-25.59s15.88-13,18.79-14.25S252,94.61,252,94.61l14.82,25.59-3.44,12.31Z"/><path class="cls-5" d="M197.12,154.28l1.56-27.06a83.43,83.43,0,0,1,36.4-5.91c20.84,1.24,29.24,8.09,29.24,8.09L264,155.22Z"/><polygon class="cls-1" points="224.4 138.42 182.09 158.33 278.31 157.5 224.4 138.42"/><path class="cls-2" d="M200.23,288.36s.94-27.38,15.87-26.75,14.62,25.82,14.62,25.82Z"/><polygon class="cls-1" points="223.15 93.74 236.84 0 242.23 97.66 223.15 93.74"/><polygon class="cls-5" points="226.61 169.42 215.02 195.12 216.59 199.08 241.41 202.86 244 196.97 236.2 166.46 226.61 169.42"/><polygon class="cls-8" points="310.07 278.95 283.43 266.46 280.52 240.66 308.41 209.02 379.18 204.02 416.64 235.24 434.55 277.7 433.71 320.58 394.08 319.26 361.69 326.41 355.87 303.51 318.82 292.69 310.07 278.95"/><path class="cls-2" d="M352.33,383l-25.1,1.09,27.6-73.53s-14.37,2.5-26.23-1.87-21.23-21.23-21.23-21.23l-5.62-48.71,12.49-.62s3.74,27.47,5,32.47,7.5,18.73,14.36,23.1S354.83,295,354.83,295l-5.62-73.06,12.48-1.87,3.13,46.83,13.73-8.12,8.75-25,13.11,2.49-11.86,31.23-16.86,8.74-2.56,42.33s15-3,24.41-9.86,15.68-17.92,15.68-17.92l9.92-1.44.63,13.11s-28.73,23.73-31.85,25-26.23,10.62-26.23,10.62Z"/><g class="cls-9"><path d="M336.27,348.16c.51-.34,16.84,1.2,16.84,1.2L350.9,356l-15.48.51Z"/><polygon points="360.93 364.83 340.36 366.19 339.5 372.14 361.61 372.48 360.93 364.83"/><polygon points="342.05 333.71 355.47 333.71 357.91 336.09 356.45 338.3 340.1 339.32 342.05 333.71"/><polygon points="374.19 301.41 356.68 301.75 355.83 306.17 371.13 305.83 374.19 301.41"/></g></g></g></svg>