<svg xmlns="http://www.w3.org/2000/svg" viewBox="0 0 148.38 197.05"><defs><style>.cls-1{fill:#0e396c;}.cls-2{fill:#f70000;}.cls-3{fill:#ff579c;}.cls-4,.cls-5{fill:#ffa8b8;}.cls-4{stroke:#ffa8b8;stroke-linejoin:bevel;stroke-width:1.11px;}</style></defs><g id="Слой_2" data-name="Слой 2"><g id="лого"><path class="cls-1" d="M39.59,124.6,26.8,127.74S12.22,115,9.76,115s-2.25,6.05.67,8.74,13.91,15.71,13.91,15.71l21.53-8.53Z"/><polygon class="cls-1" points="72.11 169.24 63.85 180.13 82.21 197.05 86.47 196.38 74.81 180.23 80.41 173.5 72.11 169.24"/><polygon class="cls-2" points="88.04 107.33 72.34 58.88 18.5 46.32 20.3 33.76 79.07 45.42 127.52 9.53 133.57 19.51 94.21 51.48 110.47 103.74 88.04 107.33"/><path class="cls-3" d="M108,93.87,32,117.65a170.12,170.12,0,0,0,23.33,37.68c15.7,19.29,30.06,30.51,30.06,30.51l26-44.86,4.93-22.88Z"/><path class="cls-1" d="M64.94,30.39S52.6,34.21,51,28.6s-1.8-7.18-1.8-7.18-9.42,2.69-10.09-.22a47.23,47.23,0,0,1-.9-6.28s-5.38,2-6.5-1.57S28.82,3,34.65,5.27A16.73,16.73,0,0,1,43,12s3.59-4,5.84.67,4.26,4.71,4.26,4.71,4.93-4.26,11,.23a33.71,33.71,0,0,1,8.75,9.19Z"/><path class="cls-4" d="M68.75,25.68c-3.84,2.56-7.18,6.73-5.16,11.89s9.2,11.22,14.13,10.54,10.1-2.91,10.77-9-6.28-12.56-9.42-13.46S71.44,23.89,68.75,25.68Z"/><path class="cls-5" d="M21.2,35.66s-3-9.42-4-9.08-4.71,1.35-4.71,1.35l1.68,5L1,34.32,0,44.75l21.87,1.68Z"/><polygon class="cls-5" points="127.52 9.53 128.19 1.68 130.54 0.34 131.89 6.73 143.33 0 148.38 5.05 133.57 19.51 127.52 9.53"/></g></g></svg>