<svg xmlns="http://www.w3.org/2000/svg" viewBox="0 0 210.39 208.88"><defs><style>.cls-1{fill:#0e396c;}.cls-2{fill:#231f20;}.cls-3{fill:#ff579c;}.cls-4{fill:#ffa8b8;}.cls-5{fill:#f8af1b;}.cls-6{fill:#f70000;}</style></defs><g id="Слой_2" data-name="Слой 2"><g id="лого"><polygon class="cls-1" points="129.43 148.77 126.29 151.76 144.51 172.08 148.99 171.28 141.54 157.01 129.43 148.77"/><path class="cls-2" d="M140.12,145.79l-19-8.44-24,2.76-18.3,24.61,1.89,24,17.67,17.67,24.61,2.52L149,196.26l3.78-26.5Zm1.27,48.58-18.93,5.68-20-1.89-13-17.67L89.86,163l13.88-17,22.29.63,10.1,7.15,8.62,22.71Z"/><path class="cls-1" d="M103.7,94.49c-11.06.88-17.64,9.6-14,14.25S121,113,121,113Z"/><polygon class="cls-3" points="130.59 89.14 98.9 91.94 91.17 57.68 22.57 44.64 23.35 33.16 89.65 43.15 120.21 44.27 183.52 34.2 188.48 46.46 125.35 57.94 130.59 89.14"/><polygon class="cls-1" points="104.51 93.35 112.3 174.09 118.37 172.92 112.64 95.31 104.51 93.35"/><path class="cls-4" d="M116,23.21c-4-2.66-9.29-4.2-13.43-.21S95.5,36.26,98.11,40.72s6.8,8.5,12.87,6.74,9.53-11,9.14-14.36S118.81,25.08,116,23.21Z"/><polygon class="cls-5" points="98.9 91.94 130.5 89.18 167.87 109.72 168.65 130.46 144.78 155.25 137.94 144.75 154.17 121.46 129.13 103.46 122.87 100.72 139.84 125.88 121.33 180 107.59 176.35 120.21 129.24 98.9 91.94"/><polygon class="cls-1" points="107.31 175.86 105.63 179.86 130.45 191.22 134.24 188.69 121.71 178.59 107.31 175.86"/><polygon class="cls-4" points="23.35 33.16 16.83 23.83 14.09 25.2 17.02 32.44 2.74 30.68 0 34.79 2.94 44.38 22.57 44.64 23.35 33.16"/><polygon class="cls-4" points="183.52 34.2 189.13 24.42 191.48 24.81 190.83 33.16 205.14 25.79 210.39 37.33 206.71 39.88 188.48 46.46 183.52 34.2"/><path class="cls-6" d="M110.6,23.06s-1.92-7.58-4.33-7.58-6.74.53-6.74.53,1.68-8.1-2.89-8.1-11.8.52-11.8.52,4.09-2.35-1.45-5.74S70.87.08,70.87.08L65.09,6.35s11.08,9.13,13.73,7.57l2.65-1.57s2.4,7.57,4.09,7.31a33.23,33.23,0,0,1,4.09-.26s1.21,9.92,4.1,11.23,8.67.78,8.67.78Z"/><path class="cls-6" d="M115.83,32.64S121.06,36,122.48,34A23.36,23.36,0,0,0,125,28.18s5.55,6.13,8.24,2.43,6.53-9.84,6.53-9.84-.51,4.69,5.49,2.21,9.48-8.58,9.48-8.58L153.07,6s-13.91,3.57-14.2,6.63l-.29,3.07s-7.54-2.51-8.32-1a34,34,0,0,1-2.2,3.46s-8.73-4.87-11.49-3.3A110.56,110.56,0,0,1,106,19.33Z"/></g></g></svg>