<svg xmlns="http://www.w3.org/2000/svg" viewBox="0 0 161.48 202.99"><defs><style>.cls-1{fill:#f8af1b;}.cls-2{fill:#f70000;}.cls-3{fill:#ff579c;}</style></defs><g id="Слой_2" data-name="Слой 2"><g id="лого"><path class="cls-1" d="M0,33,43.72,83.62l-5.55,98.55L65.24,203l44.42-2.77s20.47-12.49,31.92-71.83c5.77-29.87,4.86-67,4.86-67L104.1,57.94,91,80.25s-20.22,84.49-16.82,83,11.35.39,11.35.39l17.6-73.17s13.43,5,12,7.07-22,76.16-22,76.16l-20.34,1.57-11.1-8.33L80.51,72.52l51.86-46.71Z"/><path class="cls-2" d="M.06,33S10.18,53.08,57.37,48.92s75-23.11,75-23.11S123.47-3.44,75.65.34C-3.47,6.58.06,33,.06,33Z"/><polygon class="cls-3" points="128.97 100.01 149.45 99 149.79 105.04 129.32 106.04 128.97 100.01"/><polygon class="cls-3" points="115.66 157.68 135.47 162.97 133.96 168.82 114.15 163.53 115.66 157.68"/><polygon class="cls-3" points="124.13 131.84 138.4 134.16 135.86 139.8 122.79 137.89 124.13 131.84"/><path class="cls-2" d="M155,89.64,144.82,97.5l-3.7,12,7.87,3.24s8.32-3.7,8.79-5.09,3.7-11.57,3.7-11.57Z"/><path class="cls-2" d="M138.34,128.5l-6,10.64,3.7,8.33,7.87-.92s6-6,6-7.41.46-8.33.46-8.33Z"/><path class="cls-2" d="M126.78,160s-6.48,8.33-5.09,8.79,2.77,4.17,4.16,4.17,8.33-1.39,8.33-1.39l5.55-7.4-1.39-7.4Z"/></g></g></svg>