<svg xmlns="http://www.w3.org/2000/svg" viewBox="0 0 126.92 125.07"><defs><style>.cls-1{fill:#f8af1b;}.cls-2{fill:#fff;}</style></defs><g id="Слой_2" data-name="Слой 2"><g id="лого"><path class="cls-1" d="M22.43,41.41,0,46.46,23,60.91,7.89,78.32l27.68,5-4.79,8.73,9.84-2,5.13,35L71.26,95.76l32.08,6.31S94.23,80.53,90.61,70.26l36.31,7.19L95.18,56.92l26.76-18.75L87.43,34.8,84.32,7.11,68.68,21.91,52.4,0,41.82,18.05,8.72,4.35Z"/><polygon class="cls-2" points="60.66 40.32 85.74 54.32 86.41 45.28 63.85 36.27 60.66 40.32"/><path class="cls-2" d="M34.05,64.91l14.27-5s-2.53-3.44-3.69-3.17-14.85,5.1-14.85,5.1Z"/></g></g></svg>