<svg xmlns="http://www.w3.org/2000/svg" viewBox="0 0 268.96 229.43"><defs><style>.cls-1{fill:#ffa8b8;}.cls-2{fill:#008926;}.cls-3{fill:#f70000;}.cls-4{fill:#0e396c;}</style></defs><g id="Слой_2" data-name="Слой 2"><g id="лого"><polygon class="cls-1" points="122.09 80.61 147.52 122.09 150.26 132.46 126 139.89 94.89 94.11 122.09 80.61"/><path class="cls-2" d="M0,20.54c1.57.79,71.8,75.13,71.8,75.13l4.5-4.3L3.52,14.67Z"/><path class="cls-2" d="M127.7,72.91,103.43,84.13l-21.33,8a4.73,4.73,0,0,1-2.36.89L69.65,94.7l12.92,12.52L134.74,82Z"/><path class="cls-1" d="M94.57,75.52C93,75.52,81,76,81,76L39.78,102.91l9.39,11L89,89.43s-17.43,38.79-15.87,37.74,15.66,4.18,15.66,4.18L116.61,78S114,70.83,109,66.52c-1.64-1.44-7.69-.52-10.3,1.44Z"/><path class="cls-2" d="M90.8,127.27l-31.62-4.92s-4,2.27-2.78,3.21,5.15,3.57,5.15,3.57l14.7.9-.75,2.27,13,1Z"/><path class="cls-2" d="M50.83,113l-3.47,1.52s-20.42-16-23.57-18.59-2.44-5.08-1-4.73S37.4,99.27,37.4,99.27l5.28,2.17Z"/><polygon class="cls-3" points="126.78 143.22 117.78 131.48 123.26 110.35 147.52 122.09 152.22 135 183.13 166.3 245.74 165.13 247.3 176.09 185.87 178.44 242.22 208.17 232.44 216 178.04 196.04 154.96 186.26 126.78 143.22"/><path class="cls-1" d="M180.77,190.11c-1.37-4.59-4.49-9.16-10.22-8.72s-13.91,5.72-14.74,10.82-.16,10.89,5.64,13.39,14.35-2.42,16.2-5.26S181.74,193.32,180.77,190.11Z"/><polygon class="cls-1" points="242.22 208.17 253.04 208.04 253.3 210.65 244.83 212.74 259.83 222.52 252 229.44 232.44 216 242.22 208.17"/><polygon class="cls-1" points="247.3 176.09 255.13 180 256.56 179.09 252.78 174.26 268.04 172.83 268.96 166.04 265.96 163.17 245.74 165.13 247.3 176.09"/><polygon class="cls-2" points="61.44 4.7 125.61 78.26 129.91 75.91 65.74 0 61.44 4.7"/><polygon class="cls-4" points="154.17 193.04 150.85 204.78 160.44 211.04 174.91 209.87 175.89 202.83 162.59 202.44 159.26 193.44 154.17 193.04"/></g></g></svg>