<svg xmlns="http://www.w3.org/2000/svg" xmlns:xlink="http://www.w3.org/1999/xlink" viewBox="0 0 153.04 162.23"><defs><style>.cls-1{fill:#a0dee8;}.cls-2{fill:#ffa8b8;}.cls-3{fill:#888;}.cls-4{clip-path:url(#clip-path);}.cls-5{fill:#0e396c;}.cls-6{clip-path:url(#clip-path-2);}.cls-7{fill:#f70000;}</style><clipPath id="clip-path" transform="translate(0 10.01)"><path class="cls-1" d="M66.93,116.52A115.54,115.54,0,0,1,95.06,90.31c17.58-11.46,41.68-8.21,41.68-8.21l6.65,10.15S129.93,112,106.46,120,72,125.88,72,125.88Z"/></clipPath><clipPath id="clip-path-2" transform="translate(0 10.01)"><path class="cls-2" d="M30.19,64.67A115.64,115.64,0,0,1,41.48,27.92C51,9.21,73.51,0,73.51,0L84.33,5.48S82.52,29.31,66.19,48,39.24,70.25,39.24,70.25Z"/></clipPath></defs><g id="Слой_2" data-name="Слой 2"><g id="лого"><polygon class="cls-3" points="68.24 125.68 67.91 125.88 25.67 150.22 21.59 148.53 17.68 151.56 22.47 162.23 27.17 159.49 28.61 155.38 73.4 135.42 68.24 125.68"/><path class="cls-1" d="M66.93,116.52A115.54,115.54,0,0,1,95.06,90.31c17.58-11.46,41.68-8.21,41.68-8.21l6.65,10.15S129.93,112,106.46,120,72,125.88,72,125.88Z" transform="translate(0 10.01)"/><g class="cls-4"><path class="cls-5" d="M69.3,95.12l28.17,37,12.79-3.39L91,82.08l22.7-3.39,21.13,40.17L153,101.38,137.13,69.29s-36.79-1-37.31,0S69.3,95.12,69.3,95.12Z" transform="translate(0 10.01)"/></g><polygon class="cls-3" points="30.9 73.29 30.7 73.63 6.25 115.8 1.88 116.37 0 120.95 9.47 127.8 12.18 123.08 11.37 118.81 40.23 79.16 30.9 73.29"/><path class="cls-2" d="M30.19,64.67A115.64,115.64,0,0,1,41.48,27.92C51,9.21,73.51,0,73.51,0L84.33,5.48S82.52,29.31,66.19,48,39.24,70.25,39.24,70.25Z" transform="translate(0 10.01)"/><g class="cls-6"><polygon class="cls-7" points="80.78 8.61 50.78 40.7 27.56 82.96 24.95 76.7 43.99 16.96 77.91 0 87.82 6.26 80.26 61.04 41.39 87.65 33.3 84.78 57.04 53.74 74.52 32.61 82.08 7.3 80.78 8.61"/></g></g></g></svg>