<svg xmlns="http://www.w3.org/2000/svg" viewBox="0 0 257.71 156.39"><defs><style>.cls-1{fill:#ffa8b8;}.cls-2{fill:#0e396c;}.cls-3{fill:#f70000;}.cls-4{fill:#231f20;}</style></defs><g id="Слой_2" data-name="Слой 2"><g id="лого"><polygon class="cls-1" points="156.72 150.06 208.11 145.5 240.46 101.67 228.06 94.63 201.2 128.28 167.15 129.98 201.98 119.28 223.37 67.63 204.59 64.11 186.98 106.37 156.98 113.54 156.72 150.06"/><polygon class="cls-2" points="82.24 113.27 21.05 76.84 26.87 66.18 84.33 92.4 83.8 87.7 55.7 24.64 66.78 20 99.98 81.96 142.76 115.88 156.85 113.79 175.89 125.67 167.8 142.5 145.37 152.92 82.24 113.27"/><path class="cls-1" d="M55.17,16.43,51.52,1.3,57.78,0l4.44.26s5.48,19.31,5,19.83-11,5.21-11,5.21L46.83,14.87l1.56-2.35Z"/><path class="cls-1" d="M27.13,66.26,18.52,52.7l-2.09,2.6,4.18,9.4-18-5.22L0,74.09S20.61,77,21.39,76.7,27.13,66.26,27.13,66.26Z"/><path class="cls-1" d="M97.88,76c-1.37-4.58-4.5-9.15-10.22-8.71S73.75,73.05,72.92,78.14,72.75,89,78.56,91.54s14.35-2.42,16.19-5.27S98.84,79.26,97.88,76Z"/><path class="cls-3" d="M80.8,62.15s-2.08,8.09-1,8.09,9.13,2.61,9.13,2.61L91,84.33s2.35,5.21,3.13,5,11-3.91,11-5-4.18-20.61-4.18-20.61Z"/><path class="cls-3" d="M112.5,131.67l5.87,11s13.3,9,14.48,8.61,14.87,5.87,17.22,5.09,19.17-10.57,19.17-10.57l14.48-36-4.31-52.83L159.46,45.2,144.2,55,127.76,83.15l-5,16.57,5.35,4.3L136,85.89l14.48-24.65,13.3-4.31,7,7.83,4.7,18.78s-.78,21.92-.78,23.09-7.83,23.09-8.22,24.26-9.39,13.7-9.39,13.7l-13.31,2.74-13.3-3.92Z"/><polygon class="cls-4" points="204.42 64.7 217.47 69.91 238.08 75.13 240.69 71.22 208.86 57.39 204.42 64.7"/><polygon class="cls-4" points="227.98 94.65 235.88 103.68 255.65 113.66 257.71 109.43 233.63 90.82 227.98 94.65"/></g></g></svg>