<svg xmlns="http://www.w3.org/2000/svg" viewBox="0 0 123.78 132.38"><defs><style>.cls-1{fill:#f8af1b;}.cls-2{fill:#fff;}</style></defs><g id="Слой_2" data-name="Слой 2"><g id="лого"><path class="cls-1" d="M75.52,22.28,65.19,1.73,56.73,27.51,36.19,17.1,38,45.18,28.4,42.64l4.27,9.07L0,65.16,34.61,82.81l1.65,32.66S55,101.41,64.05,95.41l1.81,37L78.1,96.61,102.76,118,97.68,83.73,123.78,74,105.64,62.42,123,41.32l-20.08-5.89L108.16,0Z"/><polygon class="cls-2" points="85.84 59.1 78.33 86.83 87.26 85.29 90.54 61.21 85.84 59.1"/><path class="cls-2" d="M55.53,39.24,63.8,51.88s2.73-3.29,2.19-4.35-8.54-13.17-8.54-13.17Z"/></g></g></svg>