<svg xmlns="http://www.w3.org/2000/svg" viewBox="0 0 101.12 266.54"><defs><style>.cls-1{fill:#888;}.cls-2{fill:none;stroke:#000;stroke-miterlimit:10;stroke-width:3.29px;}.cls-3{fill:#bfbfbf;}.cls-4{fill:#5695a4;}</style></defs><g id="Слой_2" data-name="Слой 2"><g id="лого"><path class="cls-1" d="M43.35,6.67s-1.12-3,1.52-3.92A4.13,4.13,0,0,1,49.24,4s.63-2.28,2.47-2.36,1.84,1,1.84,1S54.45-.19,56.63,0,59,2.7,59,2.7a2.7,2.7,0,0,1,1.46,0,2.42,2.42,0,0,1,1.76,3.51A4.56,4.56,0,0,1,65.47,8c1.55,2-.81,3.72-.81,3.72S67,12.78,66.54,15a3.77,3.77,0,0,1-2.74,2.72,5.12,5.12,0,0,1-1.27,2.83c-1.12,1.15-3.68.32-3.68.32L46.62,19.47s-3.3-1.37-4.17-3.82S44,11.77,44,11.77s-3.18-2.22-2.84-3.62S43.35,6.67,43.35,6.67Z"/><line class="cls-2" x1="37.89" y1="64.8" x2="1.53" y2="93.28"/><path class="cls-1" d="M49.46,131.68S40.53,136.9,40,137s-6.58,2.48-6.58,2.48l1,3.48L56,139.43l-.46-6.49Z"/><path class="cls-3" d="M23.61,145.17c1.82-1.5,65.59-16.4,65.59-16.4s-.2,12.14.9,11.39,7.36.63,7.36.63l-.57,11.4-6.21,2.67-7.27,81.37,14.42,5.67-2.11,6.29,4.42.67,1,16.9S-.35,267.24,0,266.13s3.81-16.24,3.81-16.24L10,248l.61-8.46,9.16-2.71L33.48,166l-9.91,1.25L21.19,155.5,27.05,154Z"/><polygon class="cls-1" points="65.48 128.75 66.66 134.06 79.04 138.66 82.69 136.4 75.83 132.46 73.19 128.09 65.48 128.75"/><path d="M57.1,92.47,65,131.57s9.77-2.1,9.25-4-5.71-38.9-6.45-39.13S57.1,92.47,57.1,92.47Z"/><path d="M39.26,96.4l8.63,36.65s7.64,2.83,7.61,1.11-3-39.67-3-39.67Z"/><path class="cls-1" d="M48.08,19.79c-.61.13-1.53,4.55-1.53,4.55l-9.26,3.82s.69-3.32-2.12-2.79-9.64,20-8.64,29.54S28,65.31,28,65.31l7.18-3.41s-.9-10.78-.32-13.61a68,68,0,0,1,2.82-8.37l2.61,11.36L28,99.75l15.72,2.1,26-6.5L64,54.86l3-11.94,3.65,6.69-7.64,5.51s.65,11.51,1.37,10.39,15.3-10.27,15-10.63S72,28,72,28l-5.37,2L56.42,20.52Z"/><path class="cls-3" d="M58.93,9c-2.49-1.89-5.9-3.1-8.75-.67S45,16.73,46.56,19.74s4.1,5.81,8.12,4.9,6.65-6.8,6.53-9S60.67,10.36,58.93,9Z"/><path class="cls-3" d="M28.24,65.67c.19.37,3.54,3.17,3.54,3.17L31.49,74s6.87-1.66,6.87-1.94-.19-6.8-.19-6.8,3.69,1.24,3.69,1,.24-2.48.24-2.48L35.21,61.9Z"/><polygon class="cls-4" points="42.07 175.61 81.17 171.18 77.87 209.84 37.67 214.28 42.07 175.61"/></g></g></svg>