<svg xmlns="http://www.w3.org/2000/svg" viewBox="0 0 355.73 237.19"><defs><style>.cls-1{fill:#ffa8b8;}.cls-2{fill:#5695a4;}.cls-3{fill:#fff;}.cls-4{fill:#888;}</style></defs><g id="Слой_2" data-name="Слой 2"><g id="лого"><polygon class="cls-1" points="13.36 236.65 18.64 119.96 42.15 119.93 327.85 119.58 338.84 237.19 13.36 236.65"/><path class="cls-2" d="M0,121.1c.9-3.21,88.22-30.55,88.22-30.55l175.4-.21,92.11,29.57Z"/><path class="cls-1" d="M70.43,129.24c0-5-2.06-90-2.06-90L262,39,264,134.84Z"/><polygon class="cls-2" points="59.24 39.88 268.49 39.62 152.41 0 59.24 39.88"/><path class="cls-3" d="M101.05,114.31l1.06-56.67s5-10.67,15.13-10.12,17.41,11.2,17.41,11.2l-2.17,55.55Z"/><path class="cls-3" d="M153.79,112.57c.56-1.69,2.18-55,2.18-55s4.48-10.11,15.14-8.44,13.48,9,13.48,9l.63,55.55Z"/><path class="cls-3" d="M203.17,110.26l-.62-49.94s4.47-9.54,14-10.67,15.72,11.2,15.72,11.2l1.75,53.3Z"/><path class="cls-3" d="M111.42,214.08l.93-51.89s4.46-9.76,13.4-9.26,15.41,10.26,15.41,10.26l-1.92,50.86Z"/><path class="cls-3" d="M153,213.36c.52-1.56,2-50.71,2-50.71s4.13-9.32,14-7.78,12.43,8.26,12.43,8.26l.58,51.23Z"/><path class="cls-3" d="M196.69,208.47l-.54-43.72s3.92-8.35,12.27-9.34,13.76,9.8,13.76,9.8l1.53,46.67Z"/><path class="cls-3" d="M96.1,211.55l.33-46.06s-5.44-11.6-14.34-9.66-12.75,11.24-12.75,11.24l0,46.83Z"/><path class="cls-3" d="M238.89,211.58c.37-1.12,0-46.44,0-46.44s2.21-10.77,11.87-10.79S265.58,164,265.58,164l3,47.18Z"/><path class="cls-3" d="M55.3,214.33c0-1.19-1.64-45.48-1.64-45.48s-3.57-9.09-12.67-9.48-11.45,12.28-11.45,12.28L30,216.74Z"/><path class="cls-3" d="M282.48,212.44c0-1.57-1.62-45.72-1.62-45.72s3.5-14.85,14.84-13.3,18.77,14,18.77,14l1.23,47.28Z"/><polygon class="cls-4" points="112.91 84.66 112.95 114.49 118.33 113.5 117.8 83.68 128.56 84.64 131.04 115.93 136.91 115.92 136.87 84.15 149.07 85.23 147.97 119.61 154.51 119.33 155.35 85.43 164.25 85.58 165.26 116.38 170.15 115.39 171.09 85.08 184.78 85.55 185.8 116.84 194.11 116.83 194.56 85.54 208.25 86.01 209.76 117.79 213.18 116.32 214.61 85.52 112.91 84.66"/><polygon class="cls-3" points="14.7 121 17.09 137 330.27 136.55 334.11 119.86 14.7 121"/><polygon class="cls-4" points="90.88 126.09 91.67 109.74 239.55 109.94 238.95 127.28 90.88 126.09"/><path class="cls-4" d="M91.6,113.86l-2-32.59S238.23,82.39,238.89,85s.68,28,.68,28-5.21,3.54-5.54,1.12-3-25.23-3-25.23l-133-1.14-.62,30.64Z"/></g></g></svg>