<svg xmlns="http://www.w3.org/2000/svg" viewBox="0 0 1260.52 1192.67"><defs><style>.cls-1{fill:#0e396c;}</style></defs><g id="Слой_2" data-name="Слой 2"><g id="лого"><path class="cls-1" d="M1008.52,109.81C831.19,7.14,643.79-13.36,523.2,7.14,212.09,60,109.43,193.81,50.31,296.47S.54,725.8.54,725.8L97,1008.91s155.55,118.22,301.77,168,560-34.23,560-34.23l224-286.22,77.78-379.55S1185.86,212.47,1008.52,109.81Zm84,690.66c-28,68.44-236.44,252-236.44,252s-220.88,56-367.1,34.22S246.31,996.46,196.54,965.35,90.76,676,90.76,676l43.55-273.77L252.53,221.81l143.11-68.45s189.78-34.22,280-34.22S952.53,228,952.53,228L1139.19,473.8S1120.52,732,1092.52,800.47Z"/><polygon class="cls-1" points="912.08 177.47 135.09 879.8 149.09 917.13 928.41 189.14 912.08 177.47"/><polygon class="cls-1" points="648.42 70.14 538.75 1122.46 562.09 1129.46 676.76 51.48 646.09 58.48 648.42 70.14"/><polygon class="cls-1" points="408.09 81.81 933.08 1101.46 907.41 1113.13 377.75 98.14 408.09 81.81"/><polygon class="cls-1" points="153.76 263.81 1175.74 730.47 1173.41 746.8 142.09 298.81 153.76 263.81"/><polygon class="cls-1" points="46.43 588.13 1152.41 399.14 1173.41 434.14 55.76 623.13 46.43 588.13"/></g></g></svg>