<svg xmlns="http://www.w3.org/2000/svg" xmlns:xlink="http://www.w3.org/1999/xlink" viewBox="0 0 202.51 384.48"><defs><style>.cls-1{fill:#5695a4;}.cls-2{fill:#f8af1b;}.cls-3{clip-path:url(#clip-path);}.cls-4{fill:#bfbfbf;}.cls-5{fill:#fff;}</style><clipPath id="clip-path"><path class="cls-1" d="M144.65,254.76l-101.72-.93,3.73-22.4s14-12.13,46.66-11.2,53.2,14,53.2,14Z"/></clipPath></defs><g id="Слой_2" data-name="Слой 2"><g id="лого"><path class="cls-2" d="M68.13,155.84l-8.4,76.08,73.72-2.35,1.87-75.6Zm51,55.58L75.9,212.77s0-34,11.51-39.43,26.76-4.59,31.42,4S119.14,211.42,119.14,211.42Z"/><polygon class="cls-2" points="27.69 381.06 53.82 247.92 133.45 249.16 119.77 382.31 27.69 381.06"/><path class="cls-1" d="M144.65,254.76l-101.72-.93,3.73-22.4s14-12.13,46.66-11.2,53.2,14,53.2,14Z"/><g class="cls-3"><path class="cls-4" d="M53.51,224.59l-6.23,35.77s7.16,3.11,8.71-1.55,6.85-36.4,6.85-36.4l5.29-1.55.31,37.64,9.33-.94-.31-39.19,7.46-.31-.62,41.06h5.6L93,216.81l8.4,1.56-.93,41.06,5.91-.31,3.11-41.69,11.2,2.49L117,265l7.46-.31,5-44.49,8.71,1.87-4.36,44.48,5.91-.62,5.29-51-92.39-.62Z"/></g><path class="cls-2" d="M27.69,381.06c1.23-1.76.57-27.57-.24-49.68-.61-17-1.32-31.82-1.32-31.82H202.51l-3.73,84.92Z"/><path class="cls-1" d="M23.33,297.07,0,332.22s56,1.87,57.86-.93S84,310.45,84,310.45l22.4,22.39,67.19-2.48,28.93-30.8Z"/><path class="cls-5" d="M63.77,368S60,331.91,80.57,331.29s14.31,37.33,14.31,37.33Z"/><path class="cls-1" d="M69.06,130.24l7.41-25.59s15.87-13,18.78-14.25,28.05,4.21,28.05,4.21l14.82,25.59-3.44,12.31Z"/><path class="cls-2" d="M68.44,154.28,70,127.22a83.48,83.48,0,0,1,36.4-5.91c20.84,1.24,29.24,8.09,29.24,8.09l-.31,25.82Z"/><polygon class="cls-1" points="95.71 138.42 53.4 158.33 149.63 157.5 95.71 138.42"/><path class="cls-5" d="M71.55,288.36s.93-27.38,15.86-26.75S102,287.43,102,287.43Z"/><polygon class="cls-1" points="94.46 93.74 108.15 0 113.54 97.66 94.46 93.74"/><polygon class="cls-2" points="97.92 169.42 86.33 195.12 87.9 199.08 112.72 202.86 115.32 196.97 107.51 166.46 97.92 169.42"/></g></g></svg>