<svg width="1918" height="145" viewBox="0 0 1918 145" fill="none" xmlns="http://www.w3.org/2000/svg">
<path fill-rule="evenodd" clip-rule="evenodd" d="M1918 145H0V137.079C0 61.3725 61.4248 0 137.196 0C212.967 0 274.392 61.3725 274.392 137.079C274.392 137.079 283.104 0.030972 410.979 0.030972C538.853 0.030972 547.971 135.009 547.971 135.009C547.971 135.009 559.279 0.030972 684.964 0.030972C810.65 0.030972 822.057 133.91 822.057 133.91C822.057 133.91 834.567 0.030972 959.95 0.030972C1085.33 0.030972 1096.04 133.91 1096.04 133.91C1096.04 133.91 1110.74 0.030972 1233.94 0.030972C1357.13 0.030972 1372.03 133.91 1372.03 133.91C1372.03 133.91 1381.08 0.030972 1508.02 0.030972C1636.76 0.030972 1645.01 133.91 1645.01 133.91C1645.01 133.91 1655.42 0.030972 1785.01 0.030972C1916.4 0.030972 1918 134.909 1918 134.909V145Z" fill="#0E396C"/>
</svg>
