<svg xmlns="http://www.w3.org/2000/svg" viewBox="0 0 1020.57 360.28"><defs><style>.cls-1{fill:#fff;}</style></defs><g id="Слой_2" data-name="Слой 2"><g id="лого"><path class="cls-1" d="M932.57,48.59V171.92h26.61V48.59h17.39V171.92h26.6V48.59h17.4v137.6H915.08V48.59Z"/><path class="cls-1" d="M856.23,150.56H810.3l-11.06,35.63H781.76l44.42-137.6h14.65l43.66,137.6H867.1ZM815,135.35H851.6L833.46,75.62Z"/><path class="cls-1" d="M587.81,186.19H571.27v-63.6H514.85v63.6H498.41V48.59h16.44v59.16h56.42V48.59h16.54Z"/><path class="cls-1" d="M441.28,150.56H395.35l-11.06,35.63H366.81l44.42-137.6h14.65l43.66,137.6H452.15Zm-41.2-15.21h36.57L418.51,75.62Z"/><path class="cls-1" d="M278.48,131v55.19H261V48.59h44.61a58.48,58.48,0,0,1,17.48,2.93,43.75,43.75,0,0,1,14.56,7.94,36.74,36.74,0,0,1,9.82,12.85,40,40,0,0,1,3.69,17.58,40.05,40.05,0,0,1-3.69,17.58,37.05,37.05,0,0,1-9.82,12.76,44.11,44.11,0,0,1-14.56,7.94A56.9,56.9,0,0,1,305.61,131Zm0-14.37h27.13a34.88,34.88,0,0,0,11.15-1.89,27.26,27.26,0,0,0,8.88-5.29,23.32,23.32,0,0,0,5.86-8.22,27.29,27.29,0,0,0,2.18-11.15,28,28,0,0,0-2.18-11.25,24.33,24.33,0,0,0-5.76-8.5,26.1,26.1,0,0,0-9-5.39,33.57,33.57,0,0,0-11.15-2H278.48Z"/><path class="cls-1" d="M199.15,150.56H153.22l-11.06,35.63H124.68L169.1,48.59h14.65l43.66,137.6H210ZM158,135.35h36.57L176.38,75.62Z"/><path class="cls-1" d="M40.72,123.91H24.56v62.28H7.07V48.59H24.56v61.05H39.3l41.87-61h20L54.42,115.22l50.66,71H83.62Z"/><path class="cls-1" d="M787.68,259.71,567,223.22l2.62-15.8,52.77,8.72q3.43-11.32,6.65-21.93C651.57,119.68,666.49,70.45,679.69,41c10.56-23.55,23.81-44.75,49-40.44,22.43,3.84,25.94,26.69,26.41,50.81.58,30.15-3.94,77.36-11.42,155.57q-1.32,13.78-2.75,28.81l49.34,8.16ZM638.29,218.78l86.83,14.35q1.36-14.44,2.64-27.72c7.17-75,11.91-124.5,11.35-153.73C738.47,18.48,731,17.2,726,16.35c-8.33-1.42-17.63-.19-31.71,31.2-12.79,28.52-27.58,77.37-50,151.31Q641.41,208.52,638.29,218.78Z"/><path class="cls-1" d="M499.71,232.76H457.26V355.22h-17V232.76H397.82v-14.9H499.71Z"/><path class="cls-1" d="M377.93,313.9A60,60,0,0,1,373,331.44,45,45,0,0,1,363.49,345a42.23,42.23,0,0,1-14.05,9,49.1,49.1,0,0,1-17.93,3.11A48.16,48.16,0,0,1,316,354.75a42.84,42.84,0,0,1-12.26-6.7,44.63,44.63,0,0,1-9.44-10,60.51,60.51,0,0,1-6.41-12.55,76.57,76.57,0,0,1-4-14.24,102.45,102.45,0,0,1-1.32-15.1V277A102.32,102.32,0,0,1,284,261.92a76.46,76.46,0,0,1,4-14.25,60.51,60.51,0,0,1,6.41-12.55A43.61,43.61,0,0,1,303.78,225,41.22,41.22,0,0,1,316,218.42,46,46,0,0,1,331.51,216a49.68,49.68,0,0,1,18.4,3.21,40,40,0,0,1,14,8.87,44.24,44.24,0,0,1,9.34,14,61.71,61.71,0,0,1,4.72,17.92H360.48a51.34,51.34,0,0,0-2.93-11.6A31.69,31.69,0,0,0,352,238.9a23.88,23.88,0,0,0-8.58-6.33,30.87,30.87,0,0,0-22.93-.28,24.49,24.49,0,0,0-8.11,5.47,31.66,31.66,0,0,0-5.85,8.12,55.75,55.75,0,0,0-3.68,9.81,74.67,74.67,0,0,0-2.07,10.66,99.34,99.34,0,0,0-.57,10.47v19.34a102.08,102.08,0,0,0,.57,10.57,75.23,75.23,0,0,0,2.07,10.56,54.76,54.76,0,0,0,3.68,9.91,30,30,0,0,0,5.76,8.11,25.76,25.76,0,0,0,8.2,5.66,28.41,28.41,0,0,0,11,2,29.63,29.63,0,0,0,11.89-2.17,23.4,23.4,0,0,0,8.58-6.13,29.65,29.65,0,0,0,5.57-9.15,51.2,51.2,0,0,0,2.93-11.6Z"/><path class="cls-1" d="M247.53,291.73H195.62v48.68h61.44v14.81H178.17V217.86h78v14.9H195.62v44.16h51.91Z"/><path class="cls-1" d="M79.9,348.2a107.77,107.77,0,0,1-17.24-1.44c-19.88-3.21-36.26-11-47.34-22.55-12.53-13-17.52-30-14.43-49.16,5.91-36.54,37.78-55.61,81.22-48.59h0c43.43,7,67.68,35.16,61.77,71.7C138.79,329.67,114.38,348.2,79.9,348.2ZM65.17,241.63c-17.78,0-43,5.58-48,36.06-2.26,14,1.12,25.79,10,35.06C35.82,321.69,49,327.8,65.3,330.44c13,2.09,55.69,5.75,62.26-34.91s-35.15-50.66-48.09-52.75A91.61,91.61,0,0,0,65.17,241.63Z"/><rect class="cls-1" x="-1.11" y="277.05" width="147.12" height="18.32" transform="translate(-221.65 312.06) rotate(-80.82)"/></g></g></svg>