<svg width="774" height="335" viewBox="0 0 774 335" fill="none" xmlns="http://www.w3.org/2000/svg">
<path d="M645.936 86.8525V162.622H662.284V86.8525H672.968V162.622H689.31V86.8525H700V171.389H635.191V86.8525H645.936Z" fill="white"/>
<path d="M599.035 149.499H570.818L564.023 171.389H553.284L580.574 86.8525H589.574L616.397 171.389H605.714L599.035 149.499ZM573.705 140.155H596.191L585.046 103.459L573.705 140.155Z" fill="white"/>
<path d="M434.128 171.389H423.967V132.315H389.305V171.389H379.204V86.8525H389.305V123.198H423.967V86.8525H434.128V171.389Z" fill="white"/>
<path d="M344.106 149.499H315.888L309.093 171.389H298.354L325.644 86.8525H334.645L361.468 171.389H350.784L344.106 149.499ZM318.794 140.155H341.261L330.117 103.459L318.794 140.155Z" fill="white"/>
<path d="M244.088 137.482V171.389H233.349V86.8525H260.755C264.406 86.9035 268.027 87.5105 271.494 88.6526C274.76 89.6935 277.796 91.3492 280.44 93.5307C283.012 95.6814 285.073 98.3783 286.473 101.425C288.037 104.807 288.812 108.5 288.74 112.226C288.811 115.951 288.036 119.644 286.473 123.026C285.061 126.05 283.001 128.726 280.44 130.865C277.793 133.042 274.758 134.698 271.494 135.744C268.027 136.88 264.404 137.467 260.755 137.482H244.088ZM244.088 128.654H260.755C263.087 128.642 265.4 128.25 267.605 127.493C269.615 126.767 271.466 125.664 273.061 124.243C274.615 122.842 275.844 121.119 276.661 119.193C277.583 117.028 278.04 114.694 278 112.342C278.035 109.971 277.579 107.618 276.661 105.431C275.867 103.458 274.66 101.678 273.122 100.209C271.522 98.7421 269.641 97.6156 267.593 96.8974C265.396 96.1027 263.08 95.6872 260.743 95.6686H244.088V128.654Z" fill="white"/>
<path d="M195.35 149.499H167.133L160.338 171.389H149.599L176.889 86.8525H185.889L212.712 171.389H202.016L195.35 149.499ZM170.069 140.155H192.536L181.361 103.459L170.069 140.155Z" fill="white"/>
<path d="M98.0168 133.126H88.0887V171.389H77.3435V86.8525H88.0887V124.359H97.1444L122.868 86.8833H135.155L106.434 127.788L137.557 171.407H124.373L98.0168 133.126Z" fill="white"/>
<path d="M556.921 216.557L421.344 194.139L422.953 184.432L455.373 189.789C456.778 185.153 458.14 180.662 459.459 176.316C473.3 130.528 482.466 100.282 490.576 82.1895C497.064 67.7212 505.204 54.6967 520.68 57.3446C534.46 59.7038 536.616 73.742 536.905 88.5604C537.261 107.083 534.485 136.087 529.889 184.137C529.348 189.781 528.785 195.681 528.2 201.837L558.512 206.85L556.921 216.557ZM465.141 191.411L518.487 200.227C519.044 194.313 519.584 188.636 520.108 183.197C524.513 137.12 527.425 106.709 527.081 88.7509C526.688 68.354 522.099 67.5676 519.027 67.0454C513.91 66.173 508.196 66.9287 499.546 86.2135C491.688 103.735 482.602 133.747 468.828 179.173C467.648 183.129 466.419 187.209 465.141 191.411Z" fill="white"/>
<path d="M380.003 200H353.923V275.235H343.479V200H317.406V190.846H380.003V200Z" fill="white"/>
<path d="M305.186 249.849C304.731 253.574 303.71 257.208 302.157 260.625C300.742 263.739 298.761 266.564 296.315 268.956C293.834 271.354 290.899 273.234 287.683 274.485C284.162 275.803 280.426 276.451 276.667 276.396C273.433 276.436 270.214 275.947 267.139 274.946C264.42 273.995 261.875 272.604 259.607 270.829C257.368 269.093 255.411 267.021 253.807 264.686C252.198 262.278 250.877 259.69 249.869 256.976C248.769 254.145 247.946 251.216 247.411 248.227C246.912 245.159 246.641 242.058 246.6 238.95V227.179C246.664 224.073 246.958 220.977 247.479 217.914C248.013 214.924 248.836 211.992 249.936 209.16C250.944 206.445 252.266 203.857 253.875 201.449C255.451 199.085 257.395 196.986 259.631 195.232C261.887 193.47 264.426 192.103 267.139 191.19C270.206 190.152 273.429 189.649 276.667 189.703C280.526 189.64 284.362 190.309 287.972 191.675C291.188 192.871 294.118 194.727 296.573 197.124C299.018 199.598 300.966 202.518 302.311 205.725C303.826 209.228 304.804 212.94 305.211 216.735H294.465C294.145 214.297 293.541 211.905 292.665 209.608C291.878 207.479 290.724 205.504 289.256 203.772C287.814 202.095 286.012 200.765 283.984 199.883C279.485 198.019 274.441 197.957 269.897 199.711C268.027 200.485 266.333 201.627 264.915 203.071C263.46 204.533 262.247 206.217 261.321 208.06C260.379 209.994 259.622 212.011 259.06 214.087C258.477 216.236 258.052 218.425 257.788 220.636C257.558 222.772 257.441 224.92 257.438 227.068V238.95C257.442 241.119 257.559 243.287 257.788 245.444C258.057 247.634 258.482 249.802 259.06 251.932C259.615 254.029 260.372 256.068 261.321 258.02C262.215 259.866 263.411 261.55 264.859 263.002C266.296 264.478 268.008 265.66 269.897 266.48C272.046 267.333 274.343 267.751 276.655 267.708C279.156 267.771 281.642 267.317 283.96 266.375C285.981 265.537 287.783 264.249 289.231 262.609C290.704 260.959 291.863 259.054 292.653 256.988C293.53 254.691 294.134 252.299 294.453 249.861L305.186 249.849Z" fill="white"/>
<path d="M225.073 236.229H193.182V266.136H230.928V275.235H182.461V190.846H230.381V200H193.182V227.13H225.073V236.229Z" fill="white"/>
<path d="M122.088 270.922C118.539 270.911 114.997 270.615 111.496 270.037C99.2825 268.065 89.2192 263.279 82.4121 256.183C74.7141 248.197 71.6485 237.752 73.5468 225.981C77.1777 203.532 96.7575 191.816 123.445 196.129C150.127 200.43 165.025 217.73 161.395 240.179C158.267 259.538 143.271 270.922 122.088 270.922ZM113.038 205.449C102.115 205.449 86.6205 208.877 83.5487 227.603C82.1602 236.204 84.2367 243.447 89.6923 249.143C95.0065 254.635 103.104 258.389 113.118 260.011C121.105 261.295 147.332 263.543 151.368 238.563C155.404 213.583 129.773 207.44 121.823 206.156C118.918 205.691 115.98 205.455 113.038 205.449Z" fill="white"/>
<path d="M119.167 187.319L104.747 276.546L115.858 278.342L130.278 189.115L119.167 187.319Z" fill="white"/>
</svg>
