<svg width="48" height="48" viewBox="0 0 48 48" fill="none" xmlns="http://www.w3.org/2000/svg"><path d="M16.6121 6.22732C10.7293 6.34505 6.31072 10.6194 6.18427 16.6381C5.97122 21.5355 5.90588 26.502 6.1898 31.3969C6.29873 37.4174 10.7254 41.701 16.6121 41.8077C21.5143 42.035 26.4902 42.0916 31.3904 41.8077C37.4247 41.6983 41.6951 37.275 41.8183 31.3969C42.0314 26.4984 42.0881 21.5348 41.8183 16.6381C41.6942 10.6113 37.2719 6.34504 31.3849 6.22732C25.7521 5.96623 22.5387 5.88494 16.6121 6.22732ZM31.2465 9.44128C35.5026 9.49045 38.5382 12.4005 38.5859 16.7764C38.8111 21.5733 38.8532 26.441 38.5859 31.2365C38.5367 35.492 35.6298 38.5155 31.2465 38.5661C26.4414 38.7914 21.5652 38.8336 16.7616 38.5661C12.4934 38.5168 9.48214 35.6163 9.41668 31.2365C9.20535 26.435 9.16389 21.5711 9.41668 16.7709C9.48164 12.3968 12.4998 9.48498 16.7616 9.43575C21.5615 9.21188 26.4488 9.17489 31.2465 9.44128ZM33.5712 12.3123C32.2355 12.3157 31.2116 13.5878 31.4711 14.8807C31.64 15.7221 32.3169 16.3974 33.1598 16.5641C34.8143 16.8913 36.2022 15.1819 35.5603 13.636C35.2307 12.8421 34.4286 12.3101 33.5712 12.3123ZM24.0013 14.8237C18.2768 14.8271 13.88 20.2726 14.9852 25.8145C15.7043 29.4209 18.6027 32.318 22.2142 33.0351C27.7655 34.1374 33.2059 29.7326 33.2059 24.0175C33.2029 19.0114 29.015 14.8237 24.0013 14.8237ZM24.0013 18.0487C27.7182 18.0487 30.575 21.5833 29.8587 25.182C29.3927 27.5238 27.5112 29.4055 25.1664 29.8716C21.5209 30.5963 18.0291 27.6866 18.0291 24.0175C18.0291 20.7681 20.7469 18.0487 24.0013 18.0487Z" fill="white"/></svg>