<svg width="48" height="48" viewBox="0 0 48 48" fill="none" xmlns="http://www.w3.org/2000/svg">
<path fill-rule="evenodd" clip-rule="evenodd" d="M35.11 16.3099C34.75 20.0999 33.19 29.3099 32.39 33.5499C32.05 35.3499 31.39 35.9499 30.75 36.0099C29.36 36.1299 28.3 35.0899 26.96 34.2099C24.84 32.8299 23.66 31.9699 21.6 30.6099C19.22 29.0599 20.76 28.1999 22.12 26.7999C22.48 26.4399 28.62 20.7999 28.74 20.3399C28.7547 20.2654 28.7514 20.1884 28.7306 20.1154C28.7097 20.0424 28.6718 19.9754 28.62 19.9199C28.5426 19.8804 28.457 19.8598 28.37 19.8598C28.2831 19.8598 28.1975 19.8804 28.12 19.9199C27.9 19.9199 24.54 22.1999 18 26.6199C17.2651 27.2203 16.3578 27.5706 15.41 27.6199C14.1346 27.4662 12.8802 27.1711 11.67 26.7399C10.17 26.2599 8.97004 25.9999 9.07004 25.1599C9.13004 24.7199 9.73004 24.2799 10.85 23.8199C17.85 20.8199 22.5 18.7599 24.85 17.8199C31.5 15.0399 32.9 14.5599 33.85 14.5399C34.1849 14.5332 34.5135 14.631 34.79 14.8199C34.9792 14.9917 35.1 15.2261 35.13 15.4799C35.1567 15.7563 35.15 16.035 35.11 16.3099Z" fill="white"/>
</svg>
