<svg width="48" height="48" viewBox="0 0 48 48" fill="none" xmlns="http://www.w3.org/2000/svg">
<path d="M25.44 34C14.5 34 8.26 26.48 8 14H13.48C13.66 23.16 17.7 27 20.9 27.84V14H26.06V21.9C29.22 21.56 32.54 18 33.66 14H38.82C38.4054 16.0593 37.5695 18.0106 36.3649 19.7314C35.1603 21.4523 33.613 22.9056 31.82 24C33.8115 24.9959 35.5698 26.4017 36.9796 28.1251C38.3893 29.8485 39.4187 31.8506 40 34H34.34C33.817 32.1264 32.7521 30.4491 31.279 29.1788C29.8058 27.9084 27.9901 27.1017 26.06 26.86V34H25.44Z" fill="white"/>
</svg>
