<svg width="435" height="385" viewBox="0 0 435 385" fill="none" xmlns="http://www.w3.org/2000/svg">
<path d="M244.95 290.106L240.09 294.74L268.289 326.127L275.222 324.891L263.692 302.849L244.95 290.106Z" fill="#0E396C"/>
<path d="M261.495 285.503L232.089 272.481L195.022 276.729L166.7 314.743L169.625 351.814L196.972 379.092L235.06 383L275.161 363.445L281.026 322.512L261.495 285.503ZM263.445 360.557L234.147 369.33L203.194 366.395L183.074 339.117L183.724 312.148L205.221 285.889L239.719 286.862L255.35 297.906L268.691 333L263.445 360.557Z" fill="#231F20"/>
<path d="M205.128 206.278C188.011 207.622 177.812 221.107 183.461 228.274C189.11 235.441 231.919 234.931 231.919 234.931L205.128 206.278Z" fill="#0E396C"/>
<path d="M246.745 198.014L197.699 202.339L185.736 149.42L79.55 129.262L80.7727 111.545L183.368 126.976L230.68 128.706L328.663 113.152L336.34 132.089L238.635 149.822L246.745 198.014Z" fill="#FF579C"/>
<path d="M206.382 204.502L218.438 329.231L227.833 327.424L218.965 207.545L206.382 204.502Z" fill="#0E396C"/>
<path d="M224.196 96.2224C218.005 92.1136 209.818 89.7349 203.41 95.8826C197.003 102.03 192.437 116.303 196.461 123.207C200.485 130.112 207.001 136.352 216.38 133.634C225.759 130.915 231.145 116.642 230.541 111.437C229.937 106.232 228.514 99.0491 224.196 96.2224Z" fill="#FFA8B8"/>
<path d="M197.699 202.339L246.606 198.076L304.442 229.803L305.65 261.839L268.707 300.115L258.105 283.896L283.239 247.937L244.486 220.134L234.797 215.901L261.061 254.749L232.414 338.36L211.149 332.722L230.68 259.954L197.699 202.339Z" fill="#F8AF1B"/>
<path d="M210.715 331.966L208.115 338.144L246.529 355.676L252.379 351.784L232.986 336.167L210.715 331.966Z" fill="#0E396C"/>
<path d="M80.7729 111.545L70.6666 97.1338L66.426 99.2499L70.9761 110.433L48.8754 107.715L44.6348 114.063L49.1694 128.861L79.5503 129.262L80.7729 111.545Z" fill="#FFA8B8"/>
<path d="M328.663 113.152L337.346 98.0454L340.983 98.6478L339.961 111.546L362.124 100.162L370.249 117.987L364.538 121.91L336.34 132.089L328.663 113.152Z" fill="#FFA8B8"/>
<path d="M215.807 95.9292C215.807 95.9292 212.82 84.2362 209.09 84.2362C205.36 84.2362 198.659 85.0395 198.659 85.0395C198.659 85.0395 201.274 72.5433 194.186 72.5433C187.098 72.5433 175.939 73.3465 175.939 73.3465C175.939 73.3465 182.269 69.7166 173.695 64.4649C165.121 59.2131 154.318 60.4334 154.318 60.4334L145.373 70.1183C145.373 70.1183 162.521 84.2362 166.622 81.8112L170.708 79.4015C170.708 79.4015 174.438 91.0944 177.053 90.6928C179.153 90.4288 181.267 90.2946 183.383 90.2912C183.383 90.2912 185.241 105.614 189.713 107.638C194.186 109.661 203.132 108.842 203.132 108.842L215.807 95.9292Z" fill="#F70000"/>
<path d="M223.886 110.727C223.886 110.727 231.996 115.855 234.194 112.843C235.888 110.034 237.194 107.01 238.078 103.853C238.078 103.853 246.668 113.322 250.831 107.606C254.994 101.891 260.922 92.3917 260.922 92.3917C260.922 92.3917 260.133 99.6515 269.434 95.8208C278.736 91.9901 284.106 82.5523 284.106 82.5523L281.537 69.6392C281.537 69.6392 260.009 75.169 259.56 79.8956L259.096 84.6221C259.096 84.6221 247.426 80.7451 246.219 83.0775C245.195 84.927 244.058 86.7118 242.814 88.422C242.814 88.422 229.303 80.8996 225.047 83.3247C219.733 85.8775 214.294 88.1613 208.75 90.1674L223.886 110.727Z" fill="#F70000"/>
<path d="M17.4266 47.8135C17.4266 47.8135 5.52498 76.1422 14.1146 89.4261C22.7041 102.71 48.8598 124.721 68.2831 113.893C87.7064 103.065 111.618 60.9584 93.603 46.2689C75.5881 31.5794 39.0476 14.0941 17.4266 47.8135Z" fill="#F8AF1B"/>
<mask id="mask0_293_111" style="mask-type:luminance" maskUnits="userSpaceOnUse" x="11" y="28" width="89" height="89">
<path d="M17.4266 47.8135C17.4266 47.8135 5.52498 76.1422 14.1146 89.4261C22.7041 102.71 48.8598 124.721 68.2831 113.893C87.7064 103.065 111.618 60.9584 93.603 46.2689C75.5881 31.5794 39.0476 14.0941 17.4266 47.8135Z" fill="white"/>
</mask>
<g mask="url(#mask0_293_111)">
<path d="M-5.41687 71.1534C-5.41687 71.1534 19.5626 80.0197 43.4122 71.864C67.2618 63.7083 94.377 26.5752 94.377 26.5752L111.401 40.8013C111.401 40.8013 75.8204 76.1426 64.2439 83.4024C52.6673 90.6622 -5.2002 99.3122 -5.2002 99.3122L-5.41687 71.1534Z" fill="#008926"/>
<path d="M20.7853 111.499C20.7853 111.499 40.8122 109.476 56.6913 103.637C72.5704 97.7981 104.917 69.0679 104.917 69.0679L101.249 91.1099L68.0048 121.385L28.1212 129.015L20.7853 111.499Z" fill="#008926"/>
<path d="M-1.25391 58.9349C-1.25391 58.9349 20.4135 62.9664 37.9796 55.6448C55.5457 48.3232 78.9619 22.2343 78.9619 22.2343L65.5436 13.1055L21.8528 30.8534L-1.25391 58.9349Z" fill="#008926"/>
</g>
<path d="M363.594 73.4082L363.378 73.7789L335.721 121.369L330.784 122.018L328.663 127.192L339.373 134.916L342.438 129.602L341.525 124.767L374.15 80.0347L363.594 73.4082Z" fill="#888888"/>
<path d="M362.79 74.9687C364.697 60.535 369.013 46.5219 375.558 33.5106C386.392 12.3954 411.773 2 411.773 2L424 8.17855C424 8.17855 421.957 35.0707 403.493 56.1396C385.03 77.2084 373.035 81.2708 373.035 81.2708L362.79 74.9687Z" fill="#FFA8B8"/>
<mask id="mask1_293_111" style="mask-type:luminance" maskUnits="userSpaceOnUse" x="362" y="2" width="62" height="80">
<path d="M362.79 74.9687C364.697 60.535 369.013 46.5219 375.558 33.5106C386.392 12.3954 411.773 2 411.773 2L424 8.17855C424 8.17855 421.957 35.0707 403.493 56.1396C385.03 77.2084 373.035 81.2708 373.035 81.2708L362.79 74.9687Z" fill="white"/>
</mask>
<g mask="url(#mask1_293_111)">
<path d="M419.992 0.424269L386.082 36.6306L359.818 84.3136L356.878 77.2546L378.406 9.84656L416.742 -9.2915L427.962 -2.23251L419.404 59.5839L375.45 89.6117L366.318 86.3834L393.155 51.351L412.919 27.5018L421.462 -1.04314L419.992 0.424269Z" fill="#F70000"/>
</g>
</svg>
