<svg xmlns="http://www.w3.org/2000/svg" xmlns:xlink="http://www.w3.org/1999/xlink" viewBox="0 0 322.53 361.53"><defs><style>.cls-1{fill:#ffa8b8;}.cls-2{fill:#ff579c;}.cls-3{fill:#231f20;}.cls-4,.cls-8{fill:none;}.cls-4{stroke:#f8af1b;stroke-miterlimit:10;stroke-width:9.21px;}.cls-5{clip-path:url(#clip-path);}.cls-6{fill:#f70000;}.cls-7{fill:#008926;}.cls-8{stroke:#fff;stroke-linejoin:bevel;stroke-width:3.87px;}.cls-9{clip-path:url(#clip-path-2);}.cls-10{fill:#5695a4;}</style><clipPath id="clip-path"><path class="cls-1" d="M63.24,79.26S48.1,86.5,46.79,95.06,48.1,122,60,124.67s36.86-5.92,34.88-18.43S84.3,73.34,63.24,79.26Z"/></clipPath><clipPath id="clip-path-2"><path class="cls-2" d="M234.32,57.94c11.32,9.61,27.85,7.68,35.51-1.15s6.46-25.91-3.31-32-22.36-10.38-29.93-2S225.77,50.68,234.32,57.94Z"/></clipPath></defs><g id="Слой_2" data-name="Слой 2"><g id="лого"><polygon points="204.91 157.32 215.74 201.13 266.43 264.64 274.37 298.83 262.76 341.58 242.61 346.73 183.38 234.72 158.34 346.46 133.31 348.91 122.93 275.63 140.02 226.17 145.37 159.61 62.78 185.72 55.6 168.31 153.46 124.19 188.26 121.14 283.52 192.58 267.73 208.52 204.91 157.32"/><path class="cls-1" d="M154,124.05c5,6.51,20.13,14.52,29.26-2.44s2.2-32.5-5.58-34.64-16.35-.32-19,4.22S144.51,111.58,154,124.05Z"/><polygon class="cls-1" points="62.1 166.56 47.29 155.42 40.97 158.21 51.06 167.35 31.73 169.11 34.09 191.4 63.17 185.65 62.1 166.56"/><polygon class="cls-1" points="282.17 193.68 300.5 193.92 301.88 198.41 291.29 199.01 307.47 210.68 300.51 220.29 294.02 225.93 267.38 208.25 282.17 193.68"/><path class="cls-3" d="M188,95.81l.36.2,7.79,4.48v4.27l-46.62-6.31L148.72,93l9.16-1.63,15.67-30.94s4.28-3,7.33-2.85,7.33,5.5,7.33,7.74"/><path d="M158.34,346,156,355.42l-58.93,3.66s-4.89-4.88-3-5.8,16.79-4,16.79-4L134.62,346Z"/><path d="M258.28,338.63,279,352.37s7,5.19,6.41,7-7,2.14-7,2.14l-35.9-14.87Z"/><path class="cls-4" d="M316.78,129c5.21,14.16-8.7,21.84-16.44,23s-22.22-2.46-25.09-13.68,2.19-20.08,8.23-23.2S308,105.11,316.78,129Z"/><path class="cls-1" d="M63.24,79.26S48.1,86.5,46.79,95.06,48.1,122,60,124.67s36.86-5.92,34.88-18.43S84.3,73.34,63.24,79.26Z"/><g class="cls-5"><path class="cls-6" d="M45.46,80.49s6.95,12.68,19.63,18,37.22,0,37.22,0l1.73,12s-27.3,1.54-34.66.31-34-18.71-34-18.71Z"/><path class="cls-6" d="M41.47,106.46s8.89,6.45,17.48,9.82,32.21,3.37,32.21,3.37l-9.51,7.67-24.54.31-19-11.35Z"/><path class="cls-6" d="M51.59,77S59,86.53,68.77,89.9,97.6,91.13,97.6,91.13l-2.14-8.59L71.22,74Z"/></g><path class="cls-7" d="M121.31,1.47S97.76,13.65,107.07,32.12s27.82,16,35.52,11.82S160.22,27.7,157.2,17.72,139.12-4.21,121.31,1.47Z"/><path class="cls-8" d="M112.29,24.62c5.76,7.74,16,10.27,16,10.27"/><path class="cls-2" d="M234.32,57.94c11.32,9.61,27.85,7.68,35.51-1.15s6.46-25.91-3.31-32-22.36-10.38-29.93-2S225.77,50.68,234.32,57.94Z"/><g class="cls-9"><path class="cls-10" d="M216.86,37.5s15.74,3.49,29.8-5,15.45-20.92,15.45-20.92l8.29,5.34s-4.58,13.37-13.28,20.63c-20.86,17.42-38.84,10.1-38.84,10.1Z"/><path class="cls-10" d="M224.83,60.1s19.28.54,31.75-10.06C269.35,39.18,276,22.85,276,22.85l2.4,5s-1,13.14-10.67,22.53-23.57,14.09-28.05,16S224.83,60.1,224.83,60.1Z"/></g><path d="M54.65,301.69s11.39-9.34,12.76-11,1.23-8.6,1-10.24-5.74-5.06-5.74-5.06L45.36,286.66l-8.88-11.88-2.32,1.09,1.5,11.89-10-4.38-3,1.64L28.42,299c-2.51,3.23-8.2,15-8.2,15L3,334.48,0,356.89H35.52l2.73-11.75,7.38,11.75s10,.13,9.84-.28-5.19-22-5.19-22l12.84,22,11.48.28-17.76-38.8Z"/></g></g></svg>