<svg width="435" height="385" viewBox="0 0 435 385" fill="none" xmlns="http://www.w3.org/2000/svg">
<path d="M26.9373 380.653L25.6519 284.555L178.415 284.017L180.039 382.038L26.9373 380.653Z" fill="#0E396C"/>
<path d="M75.2144 308.113L39.1933 308.382L38.3762 361.188L75.7624 360.919L75.2144 308.113Z" fill="white"/>
<path d="M84.9694 308.382L87.4106 361.457L122.615 361.188L122.077 309.199L84.9694 308.382Z" fill="white"/>
<path d="M131.832 310.285L132.639 360.92L168.939 360.651L167.584 310.006L131.832 310.285Z" fill="white"/>
<path d="M21.3174 282.93L105.825 207.831L190.332 279.314L175.525 285.461L21.3174 286.536V282.93Z" fill="#0E396C"/>
<path d="M18.607 291.059L1 280.49L104.201 198.447H113.956L204.691 281.844L188.17 292.683L107.18 213.608L18.607 291.059Z" fill="#5695A4"/>
<path d="M90.8383 257.11C90.8383 257.11 87.0419 243.941 80.3658 244.658C73.6897 245.375 82.7074 256.612 82.7074 256.612C82.7074 256.612 67.9004 254.271 68.2691 259.142C68.6378 264.013 78.2334 263.296 78.2334 263.296C78.2334 263.296 67.5816 271.265 71.7367 275.748C75.8918 280.231 91.197 269.96 91.197 269.96L90.8383 257.11Z" fill="white"/>
<path d="M113.766 252.03C113.766 252.03 124.608 242.646 129.48 245.167C134.353 247.687 122.804 256.722 122.804 256.722C122.804 256.722 133.277 257.449 135.08 260.517C136.884 263.586 123.701 265.209 123.701 265.209C134.383 266.205 138.059 275.061 132.19 277.303C128.603 278.677 113.587 269.184 113.587 269.184L113.766 252.03Z" fill="white"/>
<path d="M10.207 279.136L13.3259 380.823L29.199 380.723L27.2759 275.619L10.207 279.136Z" fill="#5695A4"/>
<path d="M176.791 278.06L180.039 382.038L195.215 381.769L193.042 280.221L176.791 278.06Z" fill="#5695A4"/>
<path d="M43.8866 315.067L43.3485 329.87L71.5177 328.963L69.7141 315.426L43.8866 315.067Z" fill="#A0DEE8"/>
<path d="M44.6138 336.723L44.4244 354.962L52.914 355.68L53.6414 336.364L44.6138 336.723Z" fill="#A0DEE8"/>
<path d="M60.3175 335.827C60.3175 335.827 59.2314 355.859 59.9588 355.68C60.6862 355.501 68.8072 355.321 68.8072 355.321V335.1L60.3175 335.827Z" fill="#A0DEE8"/>
<path d="M92.1038 314.519L92.2831 328.067L117.563 328.246L116.835 315.067L92.1038 314.519Z" fill="#A0DEE8"/>
<path d="M92.1038 335.647L92.2831 354.783L101.131 354.056L100.773 335.468L92.1038 335.647Z" fill="#A0DEE8"/>
<path d="M107.628 335.099L108.176 353.876H117.204L116.118 334.919L107.628 335.099Z" fill="#A0DEE8"/>
<path d="M135.887 315.156L136.973 328.693L162.98 328.962L163.787 315.694L135.887 315.156Z" fill="#A0DEE8"/>
<path d="M137.511 334.92L137.79 355.5L149.16 355.231L147.535 334.651L137.511 334.92Z" fill="#A0DEE8"/>
<path d="M153.225 334.651L154.042 353.876H161.894L160.808 333.296L153.225 334.651Z" fill="#A0DEE8"/>
<path d="M197.108 156.241L188.738 232.028L262.205 229.687L264.058 154.408L197.108 156.241ZM247.926 211.607L204.84 212.951C204.84 212.951 204.84 179.082 216.309 173.673C227.778 168.264 242.964 169.101 247.617 177.658C252.27 186.215 247.946 211.607 247.946 211.607H247.926Z" fill="#F8AF1B"/>
<path d="M156.812 380.593L182.849 247.965L262.205 249.201L248.564 381.838L156.812 380.593Z" fill="#F8AF1B"/>
<path d="M273.365 254.779L172.008 253.853L175.725 231.539C175.725 231.539 189.675 219.456 222.218 220.382C254.762 221.309 275.218 234.328 275.218 234.328L273.365 254.779Z" fill="#5695A4"/>
<mask id="mask0_293_111" style="mask-type:luminance" maskUnits="userSpaceOnUse" x="172" y="220" width="104" height="35">
<path d="M273.365 254.779L172.008 253.853L175.725 231.539C175.725 231.539 189.675 219.456 222.218 220.382C254.762 221.309 275.218 234.328 275.218 234.328L273.365 254.779Z" fill="white"/>
</mask>
<g mask="url(#mask0_293_111)">
<path d="M182.54 224.725L176.372 260.358C176.372 260.358 183.507 263.456 185.051 258.814C186.596 254.172 191.867 222.554 191.867 222.554L197.138 221.01L197.447 258.505L206.753 257.568L206.435 218.529L213.878 218.22L213.24 259.122H218.82L221.919 216.975L230.289 218.529L229.353 259.431L235.251 259.122L238.35 217.593L249.5 220.073L245.774 264.98L253.217 264.671L258.199 220.352L266.878 222.215L262.534 266.524L268.423 265.906L273.694 215.102L181.633 214.485L182.54 224.725Z" fill="#BFBFBF"/>
</g>
<path d="M156.812 380.593C158.038 378.84 157.39 353.129 156.583 331.104C155.965 314.17 155.268 299.407 155.268 299.407H331.019L327.302 384L156.812 380.593Z" fill="#F8AF1B"/>
<path d="M152.458 296.927L129.211 331.941C129.211 331.941 185.011 333.804 186.865 331.015C188.718 328.226 212.901 310.255 212.901 310.255L235.221 332.559L302.172 330.089L330.999 299.407L152.458 296.927Z" fill="#5695A4"/>
<path d="M192.774 367.583C192.774 367.583 189.047 331.632 209.514 331.014C229.98 330.397 223.773 368.201 223.773 368.201L192.774 367.583Z" fill="white"/>
<path d="M198.045 130.738L205.418 105.247C205.418 105.247 221.242 92.2967 224.141 91.0515C227.041 89.8063 252.101 95.2453 252.101 95.2453L266.868 120.737L263.441 132.999L198.045 130.738Z" fill="#5695A4"/>
<path d="M197.417 154.686L198.971 127.73C210.471 123.088 222.864 121.076 235.241 121.843C256.007 123.078 264.377 129.902 264.377 129.902L264.058 155.623L197.417 154.686Z" fill="#F8AF1B"/>
<path d="M224.6 138.888L182.44 158.721L278.317 157.894L224.6 138.888Z" fill="#5695A4"/>
<path d="M200.516 288.25C200.516 288.25 201.452 260.976 216.329 261.603C231.206 262.231 230.897 287.324 230.897 287.324L200.516 288.25Z" fill="white"/>
<path d="M223.354 94.3792L236.995 1L242.366 98.2841L223.354 94.3792Z" fill="#5695A4"/>
<path d="M226.802 169.767L215.253 195.369L216.817 199.313L241.549 203.079L244.13 197.211L236.357 166.819L226.802 169.767Z" fill="#F8AF1B"/>
<path d="M309.964 278.876L283.419 266.434L280.52 240.733L308.31 209.215L378.828 204.234L416.154 235.334L434 277.631L433.163 320.346L393.674 319.031L361.4 326.153L355.601 303.341L318.683 292.563L309.964 278.876Z" fill="#008926"/>
<path d="M352.073 382.526L327.063 383.612L354.564 310.365C354.564 310.365 340.246 312.855 328.428 308.502C316.61 304.149 307.274 287.354 307.274 287.354L301.674 238.831L314.119 238.214C314.119 238.214 317.846 265.578 319.101 270.559C320.357 275.539 326.575 289.217 333.41 293.57C340.246 297.923 354.564 294.865 354.564 294.865L348.965 222.086L361.4 220.223L364.519 266.873L378.2 258.784L386.919 233.88L399.982 236.361L388.164 267.471L371.364 276.177L368.813 318.344C368.813 318.344 383.76 315.356 393.136 308.522C402.513 301.688 408.76 290.671 408.76 290.671L418.645 289.236L419.273 302.296C419.273 302.296 390.645 325.935 387.536 327.2C384.428 328.465 361.4 337.779 361.4 337.779L352.073 382.526Z" fill="white"/>
<mask id="mask1_293_111" style="mask-type:luminance" maskUnits="userSpaceOnUse" x="301" y="220" width="119" height="164">
<path d="M352.073 382.526L327.063 383.612L354.564 310.365C354.564 310.365 340.246 312.855 328.428 308.502C316.61 304.149 307.274 287.354 307.274 287.354L301.674 238.831L314.119 238.214C314.119 238.214 317.846 265.578 319.101 270.559C320.357 275.539 326.575 289.217 333.41 293.57C340.246 297.923 354.564 294.865 354.564 294.865L348.965 222.086L361.4 220.223L364.519 266.873L378.2 258.784L386.919 233.88L399.982 236.361L388.164 267.471L371.364 276.177L368.813 318.344C368.813 318.344 383.76 315.356 393.136 308.522C402.513 301.688 408.76 290.671 408.76 290.671L418.645 289.236L419.273 302.296C419.273 302.296 390.645 325.935 387.536 327.2C384.428 328.465 361.4 337.779 361.4 337.779L352.073 382.526Z" fill="white"/>
</mask>
<g mask="url(#mask1_293_111)">
<path d="M336.071 347.82C336.579 347.482 352.851 349.016 352.851 349.016L350.648 355.63L335.224 356.138L336.071 347.82Z" fill="black"/>
<path d="M360.643 364.426L340.146 365.781L339.289 371.708L361.32 372.047L360.643 364.426Z" fill="black"/>
<path d="M341.83 333.425H355.202L357.633 335.796L356.179 337.998L339.887 339.014L341.83 333.425Z" fill="black"/>
<path d="M373.855 301.25L356.408 301.588L355.561 305.991L370.806 305.652L373.855 301.25Z" fill="black"/>
</g>
</svg>
