<svg xmlns="http://www.w3.org/2000/svg" viewBox="0 0 354.6 165.65"><defs><style>.cls-1{fill:#f8af1b;}.cls-2{fill:#008926;}.cls-3{fill:#a0dee8;}.cls-4{fill:#f70000;}</style></defs><g id="Слой_2" data-name="Слой 2"><g id="лого"><polygon class="cls-1" points="0 110.56 11.28 161.4 38.83 115.55 0 110.56"/><path class="cls-2" d="M81.35,117.77l-42.53-2.22S59.35,164,59.9,163.06,81.35,117.77,81.35,117.77Z"/><polygon class="cls-3" points="125.53 116.47 81.35 117.77 107.42 164.54 125.53 116.47"/><polygon class="cls-4" points="175.45 108.89 125.53 116.47 150.31 160.11 158.44 165.65 175.45 108.89"/><polygon class="cls-2" points="218.16 97.25 175.45 108.89 206.69 156.78 218.16 97.25"/><path class="cls-3" d="M253.47,81,218.16,97.25,250.88,134s5.73,1.29,6.47.74S253.47,81,253.47,81Z"/><polygon class="cls-4" points="284.16 58.98 253.47 80.98 295.44 105.01 299.13 106.12 284.16 58.98"/><polygon class="cls-2" points="313.19 30.69 284.16 58.98 323.17 72.84 313.19 30.69"/><polygon class="cls-1" points="336.85 0 313.19 30.69 354.6 48.07 336.85 0"/></g></g></svg>