<svg xmlns="http://www.w3.org/2000/svg" viewBox="0 0 704.91 213.65"><defs><style>.cls-1{fill:#008926;}.cls-2{fill:#ff579c;}.cls-3{fill:#ffa8b8;stroke:#ffa8b8;stroke-miterlimit:10;stroke-width:0.66px;}.cls-4{fill:#0e396c;}.cls-5{fill:#231f20;}.cls-6{fill:#f70000;}.cls-7{fill:#bfbfbf;}.cls-8{fill:#f8af1b;}</style></defs><g id="Слой_2" data-name="Слой 2"><g id="лого"><path class="cls-1" d="M449.7,108.53l1.39,86.32-18,1.1,1.39-68.33-4.43-13.84-2.21-7.47,3,.56-33.2,43.71s-3.87,5.26-16.88,6.09S355.08,146.43,354,142.83s-10.79-19.09-10.79-19.09l11.06-8.85s12.18,20.47,15.22,22.69S383,142,383,142l26.83-34.3,15.22-5.81Z"/><polygon class="cls-2" points="391.6 54.85 407.65 110.74 449.7 108.53 430.34 50.43 484.56 95.25 494.52 86.95 429.23 34.38 407.65 37.7 329.63 74.77 337.93 82.52 391.6 54.85"/><path class="cls-3" d="M410,42.12c-5,1.94-12.49.89-12-10.95s8-18.55,13.12-17.29,8,7.3,8,10.52S419.65,38.42,410,42.12Z"/><polygon class="cls-3" points="335.4 71.85 324.62 69.15 323.06 71.36 329.17 73.32 317.73 77.13 320.2 83.39 323.06 87.44 340.08 80.69 335.4 71.85"/><polygon class="cls-3" points="487.71 84.21 500.7 82.9 502.44 85.68 496.72 87.65 505.04 94.36 496.55 106.31 482.95 94.81 487.71 84.21"/><polygon class="cls-4" points="407.65 19.72 395.2 28.02 386.35 13.08 406.82 3.12 429.23 6.71 430.89 20.82 424.25 29.4 418.44 27.19 407.65 19.72"/><path class="cls-5" d="M433.1,196l-.69,6.23,41.09,4.15s2.9-3.32.83-4.57-23.24-6.91-23.24-6.91Z"/><path class="cls-5" d="M358.39,117.1l-4-4.85-31.69,26.48s.35,4.4,2.69,3.78,21.19-11.78,21.19-11.78Z"/><path class="cls-3" d="M72.88,129.9s-3,40.51-16.87,45.91-20.2-8.7-20.75-9.6-2.49-4.5-2.49-4.5l-11.62,7.5s5.81,11.4,8.3,15,16.87,11.1,23.79,8.4,13.83-5.1,19.92-11.4,11.07-21.6,11.07-21.6l5-27,4.15.6L118.26,207l11.89-2.11L108.57,127.8Z"/><path class="cls-4" d="M111.34,73.79l8.16,79.82s-80.79-7.8-83-7.2S84.23,73.79,84.23,73.79l-52.57,27L20.59,91.2l83-39h10L173.87,89.4l-10,12Z"/><path class="cls-3" d="M112.07,55.49c-5,2.09-12.49,1-12-11.88s8-20.12,13.12-18.75,8,7.92,8,11.41S121.68,51.48,112.07,55.49Z"/><path class="cls-6" d="M111.89,31.19s-2.21-8.7-5-8.7-7.74.6-7.74.6,1.93-9.31-3.32-9.31-13.56.6-13.56.6,4.7-2.7-1.66-6.6-14.39-3-14.39-3L59.6,12s12.73,10.51,15.77,8.71l3-1.8s2.76,8.7,4.7,8.4a38,38,0,0,1,4.7-.3s1.39,11.4,4.71,12.9,10,.9,10,.9Z"/><polygon class="cls-3" points="168.99 88.23 181.99 86.81 183.72 89.83 178 91.96 186.32 99.24 177.83 112.2 164.23 99.73 168.99 88.23"/><polygon class="cls-3" points="27.47 90.57 16.69 87.64 15.13 90.04 21.24 92.17 9.8 96.3 12.27 103.09 15.13 107.49 32.15 100.16 27.47 90.57"/><path class="cls-1" d="M30.83,155.11,1,171.31s-1.94,4.5-.28,4.5,6.64-.3,6.64-.3l13-8.7.83,2.4,11.62-7.5Z"/><path class="cls-1" d="M118.26,207l1.38,3s21,.6,24.35.6,4.15-2.1,3-2.7-13.28-2.71-13.28-2.71l-4.43-1.5Z"/><polygon class="cls-3" points="321.71 72.59 334.7 71.28 336.44 74.06 330.72 76.03 339.04 82.74 330.55 94.69 316.95 83.19 321.71 72.59"/><polygon class="cls-3" points="184.1 84.73 174.56 90.23 174.18 92.9 180.51 91.87 172.07 100.47 177.12 104.92 184.1 108.8 193.59 93.45 184.1 84.73"/><polygon class="cls-7" points="228.09 57.44 238.05 109.91 261.02 110.46 261.57 52.64 316.63 83.35 322.71 72.84 258.53 34.1 224.96 40.65 183 84.46 192.68 94.42 228.09 57.44"/><polygon class="cls-6" points="238.05 109.91 177.55 196.88 191.57 203.88 249.3 123.65 288.77 147.07 321.79 188.76 335.44 181.01 299.75 134.81 260.19 109.36 238.05 109.91"/><path class="cls-3" d="M242.48,18.06s5.53-6.92,11.34-6.92,9.41,7.47,8,12.17-5,13.84-9.41,15.5-11-1.35-11.62-4.43C239.16,26.63,242.48,18.06,242.48,18.06Z"/><path class="cls-8" d="M251.61,15.2,239.44,26.26,234.09.44s8.48-1.11,9.77.19,7,4.24,7,4.24,11.44.37,13.28,4.24-2.95,10.51-2.95,10.51Z"/><path class="cls-4" d="M177.55,196.87l-1.93,9.32s33.2,9.13,35.13,7.19-4.7-5.25-4.7-5.25l-12.73-5-3-.56Z"/><path class="cls-4" d="M321.39,188.19l4,6.18,7.34-3.22,19.51-8.63s3-6.24,2-6.67-18.07,4.79-18.07,4.79Z"/><polygon class="cls-2" points="581.12 14.18 591.63 13.35 632.03 34.38 613.49 51.81 587.21 53.47 576.14 19.44 581.12 14.18"/><polygon class="cls-6" points="583.06 43.79 545.15 61.49 551.52 75.05 580.29 64.81 602.7 113.51 627.88 109.91 606.3 62.6 628.15 67.58 631.75 53.47 598 41.02 583.06 43.79"/><polygon class="cls-4" points="619.76 119.04 567.83 186.26 564.61 190.42 553.18 185.99 602.7 113.51 627.88 109.91 675.83 185.07 664.4 190.6 619.76 119.04"/><polygon class="cls-8" points="553.45 204.25 565.21 189.87 553.87 184.47 545.15 196.51 518.04 197.06 515.83 199.27 517.49 201.76 553.45 204.25"/><path class="cls-8" d="M675.05,183.64c-.42.14-11.62,5.4-11.62,5.4l10.51,15.35s28.91-14.11,30.43-16.46a2.94,2.94,0,0,0-.69-4l-8.57,2.49L681,193.6Z"/><polygon class="cls-3" points="545.15 61.49 502.82 83.07 492.12 79.94 490.65 82.52 497.66 87.5 484.93 96.54 492.86 104.47 503.38 96.91 551.52 75.05 545.15 61.49"/><path class="cls-3" d="M584.72,45.08c3.08.78,8-1.52,9.4-3.32,3.51-4.61,6.64-12.73,2.4-19s-7.19-6.64-10.51-6.09-7.75,6.27-8.67,11.25C576.8,30.83,576.05,42.86,584.72,45.08Z"/><polygon class="cls-3" points="631.75 53.47 680.63 66.66 688.93 62.41 693.91 62.41 686.9 68.5 699.99 70.35 700.55 72.01 699.26 82.89 683.95 78.83 673.25 77.17 628.15 67.58 631.75 53.47"/></g></g></svg>