<svg xmlns="http://www.w3.org/2000/svg" viewBox="0 0 160.15 167.98"><defs><style>.cls-1{fill:#a0dee8;}.cls-2{fill:#f70000;}</style></defs><g id="Слой_2" data-name="Слой 2"><g id="лого"><path class="cls-1" d="M67.67,64.67S41.62,34.86,44.36,23.31C46.76,13.16,79,0,79,0L101.5,19.55,93.23,71.43l33.84-29.32,21.8,6.77,11.28,23.31-42.1,23.3,36.09,17.3-1.51,27.07-21,6.77L96.24,115.8s23.31,43.61-3.76,48.87-65.42,6-60.91-11.28,25.57-45.11,25.57-45.11S9.77,132.34.74,95.49,67.67,64.67,67.67,64.67Z"/><path class="cls-2" d="M78.27,61.63c-12.3.37-27,18.81-23.73,31.9S73.36,119.7,86.45,114.8,112.62,103.34,111,92.71,105.26,60.81,78.27,61.63Z"/></g></g></svg>