<svg xmlns="http://www.w3.org/2000/svg" xmlns:xlink="http://www.w3.org/1999/xlink" viewBox="0 0 174.9 160.38"><defs><style>.cls-1{fill:#f8af1b;}.cls-2{clip-path:url(#clip-path);}.cls-3{fill:#ffa8b8;stroke:#ffa8b8;stroke-linejoin:bevel;stroke-width:0.71px;}.cls-4{fill:#f70000;}.cls-5{fill:#ff579c;}</style><clipPath id="clip-path" transform="translate(19.19 17.42)"><polygon class="cls-1" points="62.49 131.21 108.84 114.69 134.56 79.98 126.55 30.68 80.17 3.35 36.92 0 13.21 29.09 0 74.54 19.15 111.9 62.49 131.21"/></clipPath></defs><g id="Слой_2" data-name="Слой 2"><g id="лого"><polygon class="cls-1" points="81.68 148.63 128.03 132.1 153.75 97.39 145.74 48.1 99.36 20.77 56.11 17.42 32.4 46.51 19.19 91.96 38.34 129.31 81.68 148.63"/><g class="cls-2"><polygon class="cls-3" points="87.08 160.07 85.57 66.61 174.72 108.17 87.08 160.07"/><polygon class="cls-3" points="15.28 56.7 85.57 66.61 44.45 0.19 15.28 56.7"/><polygon class="cls-4" points="136.53 23.26 85.57 66.61 48.38 5.05 136.53 23.26"/><polygon class="cls-5" points="157.9 100.14 85.57 66.61 142.24 17.9 171.67 42.5 157.9 100.14"/><polygon class="cls-5" points="87.98 156.49 85.57 66.61 30.14 133.31 87.98 156.49"/><polygon class="cls-4" points="6.36 54.58 6.36 54.58 85.57 66.61 33.12 129.7 0 82.34 6.36 54.58"/></g></g></g></svg>