<svg id="лого" xmlns="http://www.w3.org/2000/svg" viewBox="0 0 173.73 153.26"><defs><style>.cls-1{fill:none;stroke:#f8af1b;stroke-miterlimit:10;stroke-width:6px;}.cls-2{fill:#ff579c;}.cls-3{fill:#f70000;}.cls-4{fill:#ffa8b8;}</style></defs><path class="cls-1" d="M25.29,181.9c24.55-74.25,84.59-89.26,84.59-89.26" transform="translate(-22.44 -29.57)"/><polygon class="cls-2" points="88.52 72.52 72.55 107.95 84.22 111.44 94.26 74.37 88.52 72.52"/><polygon class="cls-2" points="90.93 47.2 85.71 54.69 46 10.21 55.53 0 90.93 47.2"/><path class="cls-3" d="M124.86,79.72c-.82-.27-7.92-1.91-7.92-1.91l13.38-38.23,12.57,4.64Z" transform="translate(-22.44 -29.57)"/><path class="cls-3" d="M128.93,97.83l-7.37,3.55,9.29,36.32s13.1-3,12.56-4.37S128.93,97.83,128.93,97.83Z" transform="translate(-22.44 -29.57)"/><path class="cls-4" d="M138.28,92.85c-.82.82-2.73,6.55-2.73,6.55s49.15,31.13,49.7,30.31,10.92-21.57,10.92-21.57Z" transform="translate(-22.44 -29.57)"/><polygon class="cls-2" points="105.7 51.24 108.43 58.61 145.57 50.96 145.02 37.31 105.7 51.24"/><path class="cls-4" d="M98.92,82.1l-3.55,7.1-24.3-3.27s1.37-11.75,2.19-12.29S98.92,82.1,98.92,82.1Z" transform="translate(-22.44 -29.57)"/><path class="cls-2" d="M156.13,117.86c-1.09.54-8.46,7.92-8.46,7.92l13.38,16.66,10.1-7.92Z" transform="translate(-22.44 -29.57)"/></svg>