<svg xmlns="http://www.w3.org/2000/svg" xmlns:xlink="http://www.w3.org/1999/xlink" viewBox="0 0 191.35 201.63"><defs><style>.cls-1{fill:#a0dee8;}.cls-2{clip-path:url(#clip-path);}.cls-3{fill:#5695a4;}.cls-4{fill:#f70000;}.cls-5{fill:#f8af1b;}.cls-6{fill:#fff;}</style><clipPath id="clip-path"><polygon class="cls-1" points="14.44 95.72 0 184.04 30 194.32 127.76 194.6 149.42 107.94 14.44 95.72"/></clipPath></defs><g id="Слой_2" data-name="Слой 2"><g id="лого"><polygon class="cls-1" points="14.44 95.72 0 184.04 30 194.32 127.76 194.6 149.42 107.94 14.44 95.72"/><g class="cls-2"><path class="cls-3" d="M29.16,90.54l-18.88,107L21,199.78,41,93.87h9.26L34.35,200.52l11.85.37L62.86,93.5,77.3,96.09S64,202.37,64.34,201.26s10.74.37,10.74.37S86.93,96.46,88,96.09s17.22,3.24,17.22,3.24S90.63,200.52,91.74,199.78s15.93,0,17,.37,12-101.37,12-101.37l13.33.55L119.89,199.78,138,197.93l14.44-97L122.85,84.24Z"/></g><polygon class="cls-4" points="9.39 112.23 12.75 97.73 153.78 96.56 147.13 125.53 134.61 139.81 92.74 147.64 60.06 142.16 23.87 134.34 9.39 112.23"/><path class="cls-5" d="M12.75,97.73,26.48,119.2s69.82,15.13,70.69,14.87,43.48-13,43.48-13l13.13-24.28L140.66,80.14,58.2,69.3,16.3,89.73Z"/><polygon class="cls-5" points="37.31 25 33.6 34.44 102.3 52.03 109.7 47.03 109.52 39.62 37.31 25"/><polygon class="cls-5" points="155.25 30.46 176.64 99.06 184.11 99.74 191.35 96.64 168.86 27.68 155.25 30.46"/><path class="cls-4" d="M148.4,4.24c-8.2,7.46-6.54,24.09,1.8,27.53s18.76-.11,22.64-4.88,5.12-15.21.76-21S156.45-3.08,148.4,4.24Z"/><path class="cls-4" d="M39.35,19.07c-2.87-8.89-20.56-12-27.22-3.89S8.07,34.12,17.41,39.74s19.34-1.23,21.38-5.86S41.2,24.81,39.35,19.07Z"/><polygon class="cls-6" points="129.32 108.49 102.36 118.38 108.77 124.78 130.32 113.55 129.32 108.49"/></g></g></svg>