<svg xmlns="http://www.w3.org/2000/svg" viewBox="0 0 134.94 101.07"><defs><style>.cls-1{fill:#f8af1b;}.cls-2{fill:#5695a4;}</style></defs><g id="Слой_2" data-name="Слой 2"><g id="лого"><path class="cls-1" d="M91.85,101.07c-8.64,0-17.38-1.27-24.94-4.8-28.15-13.13-48.95-44-50.59-75l6-.32c1.52,28.91,20.9,57.65,47.13,69.89,23.82,11.12,63-3.32,63.38-3.46L134.94,93C133.73,93.45,113.07,101.07,91.85,101.07Z"/><path class="cls-2" d="M21.06,39c-4,0-9.55-.84-14-4.58S.16,24.49,0,16.39a14.77,14.77,0,0,1,5.11-12C9.91.3,17.28-.58,22.1.32,30,1.81,41,9.85,40.06,20.53a21.62,21.62,0,0,1-5.2,12.71,16.47,16.47,0,0,1-9.69,5.49A28,28,0,0,1,21.06,39ZM18.37,5.08c-3.14,0-7.16.78-10,3.17a9.74,9.74,0,0,0-3.31,8h0C5.21,22.87,7,27.67,10.39,30.57c4.68,4,11.39,3.52,14.06,3.13C29.19,33,34.33,28.14,35,20.1c.37-4.35-2.22-7.73-4.46-9.8a20.49,20.49,0,0,0-9.38-5A15,15,0,0,0,18.37,5.08Z"/></g></g></svg>