<svg xmlns="http://www.w3.org/2000/svg" xmlns:xlink="http://www.w3.org/1999/xlink" viewBox="0 0 125.21 97.82"><defs><style>.cls-1{fill:#ffa8b8;}.cls-2{clip-path:url(#clip-path);}.cls-3{fill:#f70000;}</style><clipPath id="clip-path" transform="translate(20.31 7.75)"><path class="cls-1" d="M30.55,1.92S3,15.12.56,30.71s2.4,49.17,24,54S91.71,73.88,88.12,51.1,68.93-8.87,30.55,1.92Z"/></clipPath></defs><g id="Слой_2" data-name="Слой 2"><g id="лого"><path class="cls-1" d="M30.55,1.92S3,15.12.56,30.71s2.4,49.17,24,54S91.71,73.88,88.12,51.1,68.93-8.87,30.55,1.92Z" transform="translate(20.31 7.75)"/><g class="cls-2"><path class="cls-3" d="M-1.86,4.17S10.81,27.27,33.91,37s67.82,0,67.82,0l3.17,21.8s-49.75,2.8-63.16.56-62-34.09-62-34.09Z" transform="translate(20.31 7.75)"/><path class="cls-3" d="M-9.13,51.5S7.08,63.24,22.73,69.38s58.69,6.15,58.69,6.15l-17.32,14-44.72.56L-15.28,69.38Z" transform="translate(20.31 7.75)"/><path class="cls-3" d="M9.32-2.16s13.41,17.32,31.3,23.47,52.54,2.24,52.54,2.24L89.25,7.9,45.09-7.75Z" transform="translate(20.31 7.75)"/></g></g></g></svg>