<svg xmlns="http://www.w3.org/2000/svg" viewBox="0 0 378.29 182.35"><defs><style>.cls-1{fill:#a0dee8;}.cls-2,.cls-3{fill:none;stroke:#000;stroke-miterlimit:10;}.cls-2{stroke-width:2.6px;}.cls-3{stroke-width:2.99px;}.cls-4{fill:#888;}.cls-5{fill:#0e396c;}</style></defs><g id="Слой_2" data-name="Слой 2"><g id="лого"><path class="cls-1" d="M161,182.35c16.17-37.44,52.71-84,52.71-84L369.26,62.21,342.17,0S170.58,32.11,134.46,36.12s-87.3,65.23-91.31,93.32c-2,13.85-11.52,35-23.8,52.91Z"/><path class="cls-2" d="M355,70.74c-.5.5,2,37.13,2,37.13"/><line class="cls-2" x1="345.84" y1="74.59" x2="349.86" y2="103.02"/><path class="cls-2" d="M339.38,74.92c-.45,1.56.95,17.9.95,17.9"/><path class="cls-2" d="M279.62,69.57c-.22.67.89,20.07.89,20.07"/><path class="cls-2" d="M270.7,70.91c0,.89.45,29,.45,29"/><path class="cls-2" d="M262.23,71.8c0,1.12-.67,33.45-.9,34.34"/><path class="cls-2" d="M249.52,73.81c.44.89,1.33,16.5,1.33,16.5"/><line class="cls-2" x1="179.72" y1="74.48" x2="180.39" y2="100.34"/><path class="cls-2" d="M169.24,73.81c.23.67,2,32.78,2,32.78"/><path class="cls-2" d="M162.11,72c.44.9,3.34,36.57,3.34,36.57"/><line class="cls-2" x1="157.2" y1="74.25" x2="156.09" y2="101.46"/><path class="cls-2" d="M145.61,74.48c-1.34,1.11,1.56,16.72,1.56,16.72"/><path class="cls-2" d="M97.44,71.58c-.67.67.45,27.65.45,27.65"/><path class="cls-2" d="M88.75,72c-1.12.9-1.34,41.25-1.34,41.25"/><line class="cls-2" x1="74.92" y1="76.04" x2="76.26" y2="100.12"/><path class="cls-2" d="M65.78,74.7c-.67.67,2,16,2,16"/><line class="cls-2" x1="23.86" y1="74.92" x2="22.3" y2="100.79"/><path class="cls-3" d="M13.55,75.76c-1,1.5-2.51,44.15-2.51,44.15"/><path class="cls-4" d="M0,64.22c4.52-.5,372.77-2.51,372.77-2.51l5.52,19.07S0,82.28,0,80.78Z"/><path class="cls-5" d="M8.53,116.4C8,114.89,24.08,84.29,43.65,80.27S89.3,106.36,89.3,106.36s12.55-28.09,35.63-27.59,42.14,28.09,42.14,28.09,24.58-33.11,53.68-31.6,43.15,30.6,43.15,30.6S280,74.25,309.55,75.26s52.18,37.62,52.18,37.62l-10,.51s-21.58-33.62-43.15-31.61-40.64,30.6-40.64,30.6l-9,.5s-13-32.1-37.12-31.1-49.67,34.62-49.67,34.62l-9.54.5s-11.14-25.59-30.1-28.1c-34.11-4.51-38.13,27.6-38.13,27.6l-10,1s-12-21.07-30.11-30.1-35.12,30.1-35.12,30.1Z"/><polygon class="cls-4" points="7.02 115.89 4.01 135.96 23.08 135.96 20.57 115.89 7.02 115.89"/><polygon class="cls-4" points="79.27 135.46 83.28 113.89 94.82 113.39 98.84 136.47 79.27 135.46"/><path class="cls-4" d="M157.54,135c.5-3,4.51-20.57,4.51-20.57l13.55-1,4,22.07Z"/><path class="cls-4" d="M253.36,134.46c.5-5,3.52-20.07,5.52-21.58s13.05-1.5,13.05-1.5l3,23.58Z"/><path class="cls-4" d="M346.68,132c0-2,2.51-22.08,2.51-22.08l15.05.51,1,21.57Z"/></g></g></svg>