<svg xmlns="http://www.w3.org/2000/svg" viewBox="0 0 149.48 178.33"><defs><style>.cls-1{fill:none;stroke:#f8af1b;stroke-miterlimit:10;stroke-width:6px;}.cls-2{fill:#ff579c;}.cls-3{fill:#f70000;}.cls-4{fill:#ffa8b8;}</style></defs><g id="Слой_2" data-name="Слой 2"><g id="лого"><path class="cls-1" d="M148.34,175.55C76,146,65.11,85,65.11,85"/><polygon class="cls-2" points="74.62 84.59 108.87 102.96 113.14 91.56 76.85 79 74.62 84.59"/><polygon class="cls-2" points="49.52 80.45 56.63 86.17 9.53 122.74 0 112.53 49.52 80.45"/><path class="cls-3" d="M53.25,69.19C52.92,70,50.8,77,50.8,77L13.57,61l5.5-12.21Z"/><path class="cls-3" d="M71.59,66.37l3,7.6L111.5,67.2s-2.1-13.28-3.5-12.83S71.59,66.37,71.59,66.37Z"/><path class="cls-4" d="M67.27,56.7c.76.88,6.35,3.18,6.35,3.18s34.43-46.9,33.65-47.5S86.5,0,86.5,0Z"/><polygon class="cls-2" points="54.56 66 62.1 63.78 57.03 26.2 43.37 25.81 54.56 66"/><path class="cls-4" d="M53.84,95.23l6.84,4-4.94,24s-11.62-2.17-12.11-3S53.84,95.23,53.84,95.23Z"/><path class="cls-2" d="M93.44,40.62c.47,1.12,7.32,9,7.32,9L118.3,37.4l-7.21-10.62Z"/></g></g></svg>