<svg xmlns="http://www.w3.org/2000/svg" viewBox="0 0 204.42 184.3"><defs><style>.cls-1{fill:#0e396c;}.cls-2{fill:#fff;}.cls-3{fill:#5695a4;}.cls-4{fill:#a0dee8;}</style></defs><g id="Слой_2" data-name="Слой 2"><g id="лого"><polygon class="cls-1" points="26.03 182.91 24.74 86.44 178.05 85.9 179.68 184.3 26.03 182.91"/><polygon class="cls-2" points="74.48 110.09 38.33 110.36 37.51 163.37 75.03 163.1 74.48 110.09"/><polygon class="cls-2" points="84.27 110.36 86.72 163.65 122.05 163.37 121.51 111.18 84.27 110.36"/><polygon class="cls-2" points="131.3 112.27 132.11 163.1 168.54 162.83 167.18 112 131.3 112.27"/><polygon class="cls-1" points="20.39 84.81 105.2 9.42 190.01 81.19 175.15 87.35 20.39 88.44 20.39 84.81"/><polygon class="cls-3" points="17.67 92.97 0 82.37 103.57 0 113.36 0 204.42 83.72 187.84 94.6 106.56 15.22 17.67 92.97"/><path class="cls-2" d="M90.16,58.9S86.35,45.67,79.65,46.39s2.35,12,2.35,12S67.14,56,67.51,60.89s10,4.17,10,4.17S66.78,73,71,77.56s19.57-5.8,19.57-5.8Z"/><path class="cls-2" d="M113.17,53.82s10.88-9.42,15.77-6.88-6.7,11.6-6.7,11.6,10.51.72,12.32,3.8-11.42,4.71-11.42,4.71c10.72,1,14.41,9.89,8.52,12.14C128.06,80.57,113,71,113,71Z"/><polygon class="cls-3" points="9.24 81.01 12.37 183.08 28.3 182.98 26.37 77.47 9.24 81.01"/><polygon class="cls-3" points="176.42 79.92 179.68 184.3 194.91 184.03 192.73 82.09 176.42 79.92"/><polygon class="cls-4" points="43.04 117.07 42.5 131.93 70.77 131.03 68.96 117.43 43.04 117.07"/><polygon class="cls-4" points="43.77 138.82 43.58 157.12 52.1 157.85 52.83 138.46 43.77 138.82"/><path class="cls-4" d="M59.53,137.91s-1.09,20.12-.36,19.94,8.88-.37,8.88-.37V137.19Z"/><polygon class="cls-4" points="91.43 116.53 91.61 130.12 116.98 130.3 116.25 117.07 91.43 116.53"/><polygon class="cls-4" points="91.43 137.73 91.61 156.94 100.49 156.22 100.13 137.55 91.43 137.73"/><polygon class="cls-4" points="107.01 137.19 107.56 156.03 116.62 156.03 115.53 137 107.01 137.19"/><polygon class="cls-4" points="135.37 117.16 136.46 130.75 162.56 131.03 163.37 117.7 135.37 117.16"/><polygon class="cls-4" points="137 137 137.28 157.66 148.69 157.39 147.06 136.73 137 137"/><polygon class="cls-4" points="152.77 136.73 153.59 156.03 161.47 156.03 160.38 135.37 152.77 136.73"/></g></g></svg>