<svg xmlns="http://www.w3.org/2000/svg" xmlns:xlink="http://www.w3.org/1999/xlink" viewBox="0 0 139.04 138.3"><defs><style>.cls-1{fill:#a0dee8;}.cls-2{clip-path:url(#clip-path);}.cls-3{fill:#008926;}</style><clipPath id="clip-path" transform="translate(19.57 18.28)"><path class="cls-1" d="M7.64,23.14S-6.54,56.93,3.74,72.79,45.06,114.89,68.2,102s51.51-63.17,30.13-80.69S33.38-17.09,7.64,23.14Z"/></clipPath></defs><g id="Слой_2" data-name="Слой 2"><g id="лого"><path class="cls-1" d="M7.64,23.14S-6.54,56.93,3.74,72.79,45.06,114.89,68.2,102s51.51-63.17,30.13-80.69S33.38-17.09,7.64,23.14Z" transform="translate(19.57 18.28)"/><g class="cls-2"><path class="cls-3" d="M-19.57,51s29.74,10.58,58.14.84,60.69-54,60.69-54l20.2,17S77.17,56.91,63.38,65.6-19.31,84.51-19.31,84.51Z" transform="translate(19.57 18.28)"/><path class="cls-3" d="M11.63,99.12s23.85-2.41,42.76-9.38,57.42-41.25,57.42-41.25L107.44,74.8,67.86,110.92,20.37,120Z" transform="translate(19.57 18.28)"/><path class="cls-3" d="M-14.62,36.4s25.81,4.82,46.72-3.93S80.9-7.39,80.9-7.39l-16-10.89L12.94,2.9Z" transform="translate(19.57 18.28)"/></g></g></g></svg>